G04 #@! TF.FileFunction,Legend,Bot*
%FSLAX46Y46*%
G04 Gerber Fmt 4.6, Leading zero omitted, Abs format (unit mm)*
G04 Created by KiCad (PCBNEW (2016-03-30 BZR 6657, Git fe53ec8)-product) date Mon 11 Apr 2016 10:18:00 PM PDT*
%MOMM*%
G01*
G04 APERTURE LIST*
%ADD10C,0.100000*%
%ADD11C,0.200000*%
%ADD12C,0.150000*%
G04 APERTURE END LIST*
D10*
D11*
X128022843Y-58030000D02*
G75*
G03X128022843Y-58030000I-282843J0D01*
G01*
X128623607Y-67120000D02*
G75*
G03X128623607Y-67120000I-223607J0D01*
G01*
D10*
X114028333Y-67129285D02*
X113861666Y-67129285D01*
X113790238Y-67391190D02*
X114028333Y-67391190D01*
X114028333Y-66891190D01*
X113790238Y-66891190D01*
X113623571Y-67391190D02*
X113361666Y-67057857D01*
X113623571Y-67057857D02*
X113361666Y-67391190D01*
X113195000Y-67367380D02*
X113147380Y-67391190D01*
X113052142Y-67391190D01*
X113004523Y-67367380D01*
X112980714Y-67319761D01*
X112980714Y-67295952D01*
X113004523Y-67248333D01*
X113052142Y-67224523D01*
X113123571Y-67224523D01*
X113171190Y-67200714D01*
X113195000Y-67153095D01*
X113195000Y-67129285D01*
X113171190Y-67081666D01*
X113123571Y-67057857D01*
X113052142Y-67057857D01*
X113004523Y-67081666D01*
X112766428Y-67391190D02*
X112766428Y-67057857D01*
X112766428Y-66891190D02*
X112790238Y-66915000D01*
X112766428Y-66938809D01*
X112742619Y-66915000D01*
X112766428Y-66891190D01*
X112766428Y-66938809D01*
X112552142Y-67367380D02*
X112504523Y-67391190D01*
X112409285Y-67391190D01*
X112361666Y-67367380D01*
X112337857Y-67319761D01*
X112337857Y-67295952D01*
X112361666Y-67248333D01*
X112409285Y-67224523D01*
X112480714Y-67224523D01*
X112528333Y-67200714D01*
X112552142Y-67153095D01*
X112552142Y-67129285D01*
X112528333Y-67081666D01*
X112480714Y-67057857D01*
X112409285Y-67057857D01*
X112361666Y-67081666D01*
X112195000Y-67057857D02*
X112004523Y-67057857D01*
X112123571Y-66891190D02*
X112123571Y-67319761D01*
X112099761Y-67367380D01*
X112052142Y-67391190D01*
X112004523Y-67391190D01*
X111766428Y-67391190D02*
X111814047Y-67367380D01*
X111837857Y-67343571D01*
X111861666Y-67295952D01*
X111861666Y-67153095D01*
X111837857Y-67105476D01*
X111814047Y-67081666D01*
X111766428Y-67057857D01*
X111695000Y-67057857D01*
X111647380Y-67081666D01*
X111623571Y-67105476D01*
X111599761Y-67153095D01*
X111599761Y-67295952D01*
X111623571Y-67343571D01*
X111647380Y-67367380D01*
X111695000Y-67391190D01*
X111766428Y-67391190D01*
X111004523Y-67057857D02*
X111004523Y-67391190D01*
X111004523Y-67105476D02*
X110980714Y-67081666D01*
X110933095Y-67057857D01*
X110861666Y-67057857D01*
X110814047Y-67081666D01*
X110790238Y-67129285D01*
X110790238Y-67391190D01*
X110552142Y-67391190D02*
X110552142Y-67057857D01*
X110552142Y-66891190D02*
X110575952Y-66915000D01*
X110552142Y-66938809D01*
X110528333Y-66915000D01*
X110552142Y-66891190D01*
X110552142Y-66938809D01*
X110314047Y-67391190D02*
X110314047Y-67057857D01*
X110314047Y-67105476D02*
X110290238Y-67081666D01*
X110242619Y-67057857D01*
X110171190Y-67057857D01*
X110123571Y-67081666D01*
X110099761Y-67129285D01*
X110099761Y-67391190D01*
X110099761Y-67129285D02*
X110075952Y-67081666D01*
X110028333Y-67057857D01*
X109956904Y-67057857D01*
X109909285Y-67081666D01*
X109885476Y-67129285D01*
X109885476Y-67391190D01*
X109647380Y-67391190D02*
X109647380Y-67057857D01*
X109647380Y-66891190D02*
X109671190Y-66915000D01*
X109647380Y-66938809D01*
X109623571Y-66915000D01*
X109647380Y-66891190D01*
X109647380Y-66938809D01*
X109433095Y-67367380D02*
X109385476Y-67391190D01*
X109290238Y-67391190D01*
X109242619Y-67367380D01*
X109218809Y-67319761D01*
X109218809Y-67295952D01*
X109242619Y-67248333D01*
X109290238Y-67224523D01*
X109361666Y-67224523D01*
X109409285Y-67200714D01*
X109433095Y-67153095D01*
X109433095Y-67129285D01*
X109409285Y-67081666D01*
X109361666Y-67057857D01*
X109290238Y-67057857D01*
X109242619Y-67081666D01*
X114075952Y-67907857D02*
X114075952Y-68407857D01*
X114075952Y-67931666D02*
X114028333Y-67907857D01*
X113933095Y-67907857D01*
X113885476Y-67931666D01*
X113861666Y-67955476D01*
X113837857Y-68003095D01*
X113837857Y-68145952D01*
X113861666Y-68193571D01*
X113885476Y-68217380D01*
X113933095Y-68241190D01*
X114028333Y-68241190D01*
X114075952Y-68217380D01*
X113623571Y-68241190D02*
X113623571Y-67907857D01*
X113623571Y-67741190D02*
X113647380Y-67765000D01*
X113623571Y-67788809D01*
X113599761Y-67765000D01*
X113623571Y-67741190D01*
X113623571Y-67788809D01*
X113171190Y-67907857D02*
X113171190Y-68312619D01*
X113195000Y-68360238D01*
X113218809Y-68384047D01*
X113266428Y-68407857D01*
X113337857Y-68407857D01*
X113385476Y-68384047D01*
X113171190Y-68217380D02*
X113218809Y-68241190D01*
X113314047Y-68241190D01*
X113361666Y-68217380D01*
X113385476Y-68193571D01*
X113409285Y-68145952D01*
X113409285Y-68003095D01*
X113385476Y-67955476D01*
X113361666Y-67931666D01*
X113314047Y-67907857D01*
X113218809Y-67907857D01*
X113171190Y-67931666D01*
X112742619Y-68217380D02*
X112790238Y-68241190D01*
X112885476Y-68241190D01*
X112933095Y-68217380D01*
X112956904Y-68169761D01*
X112956904Y-67979285D01*
X112933095Y-67931666D01*
X112885476Y-67907857D01*
X112790238Y-67907857D01*
X112742619Y-67931666D01*
X112718809Y-67979285D01*
X112718809Y-68026904D01*
X112956904Y-68074523D01*
X112504523Y-68241190D02*
X112504523Y-67907857D01*
X112504523Y-68003095D02*
X112480714Y-67955476D01*
X112456904Y-67931666D01*
X112409285Y-67907857D01*
X112361666Y-67907857D01*
X111599761Y-68241190D02*
X111599761Y-67741190D01*
X111599761Y-68217380D02*
X111647380Y-68241190D01*
X111742619Y-68241190D01*
X111790238Y-68217380D01*
X111814047Y-68193571D01*
X111837857Y-68145952D01*
X111837857Y-68003095D01*
X111814047Y-67955476D01*
X111790238Y-67931666D01*
X111742619Y-67907857D01*
X111647380Y-67907857D01*
X111599761Y-67931666D01*
X111171190Y-68217380D02*
X111218809Y-68241190D01*
X111314047Y-68241190D01*
X111361666Y-68217380D01*
X111385476Y-68169761D01*
X111385476Y-67979285D01*
X111361666Y-67931666D01*
X111314047Y-67907857D01*
X111218809Y-67907857D01*
X111171190Y-67931666D01*
X111147380Y-67979285D01*
X111147380Y-68026904D01*
X111385476Y-68074523D01*
X111004523Y-67907857D02*
X110814047Y-67907857D01*
X110933095Y-68241190D02*
X110933095Y-67812619D01*
X110909285Y-67765000D01*
X110861666Y-67741190D01*
X110814047Y-67741190D01*
X110647380Y-68241190D02*
X110647380Y-67907857D01*
X110647380Y-67741190D02*
X110671190Y-67765000D01*
X110647380Y-67788809D01*
X110623571Y-67765000D01*
X110647380Y-67741190D01*
X110647380Y-67788809D01*
X110195000Y-68217380D02*
X110242619Y-68241190D01*
X110337857Y-68241190D01*
X110385476Y-68217380D01*
X110409285Y-68193571D01*
X110433095Y-68145952D01*
X110433095Y-68003095D01*
X110409285Y-67955476D01*
X110385476Y-67931666D01*
X110337857Y-67907857D01*
X110242619Y-67907857D01*
X110195000Y-67931666D01*
X109790238Y-68217380D02*
X109837857Y-68241190D01*
X109933095Y-68241190D01*
X109980714Y-68217380D01*
X110004523Y-68169761D01*
X110004523Y-67979285D01*
X109980714Y-67931666D01*
X109933095Y-67907857D01*
X109837857Y-67907857D01*
X109790238Y-67931666D01*
X109766428Y-67979285D01*
X109766428Y-68026904D01*
X110004523Y-68074523D01*
X109552142Y-68241190D02*
X109552142Y-67907857D01*
X109552142Y-68003095D02*
X109528333Y-67955476D01*
X109504523Y-67931666D01*
X109456904Y-67907857D01*
X109409285Y-67907857D01*
X109052142Y-68217380D02*
X109099761Y-68241190D01*
X109195000Y-68241190D01*
X109242619Y-68217380D01*
X109266428Y-68169761D01*
X109266428Y-67979285D01*
X109242619Y-67931666D01*
X109195000Y-67907857D01*
X109099761Y-67907857D01*
X109052142Y-67931666D01*
X109028333Y-67979285D01*
X109028333Y-68026904D01*
X109266428Y-68074523D01*
X108814047Y-68193571D02*
X108790238Y-68217380D01*
X108814047Y-68241190D01*
X108837857Y-68217380D01*
X108814047Y-68193571D01*
X108814047Y-68241190D01*
X115627380Y-58881190D02*
X115627380Y-58381190D01*
X115508333Y-58381190D01*
X115436904Y-58405000D01*
X115389285Y-58452619D01*
X115365476Y-58500238D01*
X115341666Y-58595476D01*
X115341666Y-58666904D01*
X115365476Y-58762142D01*
X115389285Y-58809761D01*
X115436904Y-58857380D01*
X115508333Y-58881190D01*
X115627380Y-58881190D01*
X115032142Y-58381190D02*
X114936904Y-58381190D01*
X114889285Y-58405000D01*
X114841666Y-58452619D01*
X114817857Y-58547857D01*
X114817857Y-58714523D01*
X114841666Y-58809761D01*
X114889285Y-58857380D01*
X114936904Y-58881190D01*
X115032142Y-58881190D01*
X115079761Y-58857380D01*
X115127380Y-58809761D01*
X115151190Y-58714523D01*
X115151190Y-58547857D01*
X115127380Y-58452619D01*
X115079761Y-58405000D01*
X115032142Y-58381190D01*
X114222619Y-58881190D02*
X114222619Y-58381190D01*
X113936904Y-58881190D01*
X113936904Y-58381190D01*
X113603571Y-58381190D02*
X113508333Y-58381190D01*
X113460714Y-58405000D01*
X113413095Y-58452619D01*
X113389285Y-58547857D01*
X113389285Y-58714523D01*
X113413095Y-58809761D01*
X113460714Y-58857380D01*
X113508333Y-58881190D01*
X113603571Y-58881190D01*
X113651190Y-58857380D01*
X113698809Y-58809761D01*
X113722619Y-58714523D01*
X113722619Y-58547857D01*
X113698809Y-58452619D01*
X113651190Y-58405000D01*
X113603571Y-58381190D01*
X113246428Y-58381190D02*
X112960714Y-58381190D01*
X113103571Y-58881190D02*
X113103571Y-58381190D01*
X112127380Y-58881190D02*
X112294047Y-58643095D01*
X112413095Y-58881190D02*
X112413095Y-58381190D01*
X112222619Y-58381190D01*
X112175000Y-58405000D01*
X112151190Y-58428809D01*
X112127380Y-58476428D01*
X112127380Y-58547857D01*
X112151190Y-58595476D01*
X112175000Y-58619285D01*
X112222619Y-58643095D01*
X112413095Y-58643095D01*
X111913095Y-58619285D02*
X111746428Y-58619285D01*
X111675000Y-58881190D02*
X111913095Y-58881190D01*
X111913095Y-58381190D01*
X111675000Y-58381190D01*
X111460714Y-58881190D02*
X111460714Y-58381190D01*
X111294047Y-58738333D01*
X111127380Y-58381190D01*
X111127380Y-58881190D01*
X110794047Y-58381190D02*
X110698809Y-58381190D01*
X110651190Y-58405000D01*
X110603571Y-58452619D01*
X110579761Y-58547857D01*
X110579761Y-58714523D01*
X110603571Y-58809761D01*
X110651190Y-58857380D01*
X110698809Y-58881190D01*
X110794047Y-58881190D01*
X110841666Y-58857380D01*
X110889285Y-58809761D01*
X110913095Y-58714523D01*
X110913095Y-58547857D01*
X110889285Y-58452619D01*
X110841666Y-58405000D01*
X110794047Y-58381190D01*
X110436904Y-58381190D02*
X110270238Y-58881190D01*
X110103571Y-58381190D01*
X109936904Y-58619285D02*
X109770238Y-58619285D01*
X109698809Y-58881190D02*
X109936904Y-58881190D01*
X109936904Y-58381190D01*
X109698809Y-58381190D01*
X115246428Y-59469285D02*
X115175000Y-59493095D01*
X115151190Y-59516904D01*
X115127380Y-59564523D01*
X115127380Y-59635952D01*
X115151190Y-59683571D01*
X115175000Y-59707380D01*
X115222619Y-59731190D01*
X115413095Y-59731190D01*
X115413095Y-59231190D01*
X115246428Y-59231190D01*
X115198809Y-59255000D01*
X115175000Y-59278809D01*
X115151190Y-59326428D01*
X115151190Y-59374047D01*
X115175000Y-59421666D01*
X115198809Y-59445476D01*
X115246428Y-59469285D01*
X115413095Y-59469285D01*
X114913095Y-59469285D02*
X114746428Y-59469285D01*
X114675000Y-59731190D02*
X114913095Y-59731190D01*
X114913095Y-59231190D01*
X114675000Y-59231190D01*
X114294047Y-59469285D02*
X114460714Y-59469285D01*
X114460714Y-59731190D02*
X114460714Y-59231190D01*
X114222619Y-59231190D01*
X113936904Y-59231190D02*
X113841666Y-59231190D01*
X113794047Y-59255000D01*
X113746428Y-59302619D01*
X113722619Y-59397857D01*
X113722619Y-59564523D01*
X113746428Y-59659761D01*
X113794047Y-59707380D01*
X113841666Y-59731190D01*
X113936904Y-59731190D01*
X113984523Y-59707380D01*
X114032142Y-59659761D01*
X114055952Y-59564523D01*
X114055952Y-59397857D01*
X114032142Y-59302619D01*
X113984523Y-59255000D01*
X113936904Y-59231190D01*
X113222619Y-59731190D02*
X113389285Y-59493095D01*
X113508333Y-59731190D02*
X113508333Y-59231190D01*
X113317857Y-59231190D01*
X113270238Y-59255000D01*
X113246428Y-59278809D01*
X113222619Y-59326428D01*
X113222619Y-59397857D01*
X113246428Y-59445476D01*
X113270238Y-59469285D01*
X113317857Y-59493095D01*
X113508333Y-59493095D01*
X113008333Y-59469285D02*
X112841666Y-59469285D01*
X112770238Y-59731190D02*
X113008333Y-59731190D01*
X113008333Y-59231190D01*
X112770238Y-59231190D01*
X112008333Y-59469285D02*
X112175000Y-59469285D01*
X112175000Y-59731190D02*
X112175000Y-59231190D01*
X111936904Y-59231190D01*
X111508333Y-59731190D02*
X111746428Y-59731190D01*
X111746428Y-59231190D01*
X111341666Y-59731190D02*
X111341666Y-59231190D01*
X110841666Y-59255000D02*
X110889285Y-59231190D01*
X110960714Y-59231190D01*
X111032142Y-59255000D01*
X111079761Y-59302619D01*
X111103571Y-59350238D01*
X111127380Y-59445476D01*
X111127380Y-59516904D01*
X111103571Y-59612142D01*
X111079761Y-59659761D01*
X111032142Y-59707380D01*
X110960714Y-59731190D01*
X110913095Y-59731190D01*
X110841666Y-59707380D01*
X110817857Y-59683571D01*
X110817857Y-59516904D01*
X110913095Y-59516904D01*
X110603571Y-59731190D02*
X110603571Y-59231190D01*
X110603571Y-59469285D02*
X110317857Y-59469285D01*
X110317857Y-59731190D02*
X110317857Y-59231190D01*
X110151190Y-59231190D02*
X109865476Y-59231190D01*
X110008333Y-59731190D02*
X110008333Y-59231190D01*
X114313095Y-62881190D02*
X114027380Y-62881190D01*
X114170238Y-63381190D02*
X114170238Y-62881190D01*
X113860714Y-63381190D02*
X113860714Y-63047857D01*
X113860714Y-62881190D02*
X113884523Y-62905000D01*
X113860714Y-62928809D01*
X113836904Y-62905000D01*
X113860714Y-62881190D01*
X113860714Y-62928809D01*
X113408333Y-63047857D02*
X113408333Y-63452619D01*
X113432142Y-63500238D01*
X113455952Y-63524047D01*
X113503571Y-63547857D01*
X113575000Y-63547857D01*
X113622619Y-63524047D01*
X113408333Y-63357380D02*
X113455952Y-63381190D01*
X113551190Y-63381190D01*
X113598809Y-63357380D01*
X113622619Y-63333571D01*
X113646428Y-63285952D01*
X113646428Y-63143095D01*
X113622619Y-63095476D01*
X113598809Y-63071666D01*
X113551190Y-63047857D01*
X113455952Y-63047857D01*
X113408333Y-63071666D01*
X113170238Y-63381190D02*
X113170238Y-63047857D01*
X113170238Y-63143095D02*
X113146428Y-63095476D01*
X113122619Y-63071666D01*
X113075000Y-63047857D01*
X113027380Y-63047857D01*
X112860714Y-63381190D02*
X112860714Y-63047857D01*
X112860714Y-62881190D02*
X112884523Y-62905000D01*
X112860714Y-62928809D01*
X112836904Y-62905000D01*
X112860714Y-62881190D01*
X112860714Y-62928809D01*
X112646428Y-63357380D02*
X112598809Y-63381190D01*
X112503571Y-63381190D01*
X112455952Y-63357380D01*
X112432142Y-63309761D01*
X112432142Y-63285952D01*
X112455952Y-63238333D01*
X112503571Y-63214523D01*
X112575000Y-63214523D01*
X112622619Y-63190714D01*
X112646428Y-63143095D01*
X112646428Y-63119285D01*
X112622619Y-63071666D01*
X112575000Y-63047857D01*
X112503571Y-63047857D01*
X112455952Y-63071666D01*
X111622619Y-63381190D02*
X111622619Y-63119285D01*
X111646428Y-63071666D01*
X111694047Y-63047857D01*
X111789285Y-63047857D01*
X111836904Y-63071666D01*
X111622619Y-63357380D02*
X111670238Y-63381190D01*
X111789285Y-63381190D01*
X111836904Y-63357380D01*
X111860714Y-63309761D01*
X111860714Y-63262142D01*
X111836904Y-63214523D01*
X111789285Y-63190714D01*
X111670238Y-63190714D01*
X111622619Y-63166904D01*
X111170238Y-63381190D02*
X111170238Y-62881190D01*
X111170238Y-63357380D02*
X111217857Y-63381190D01*
X111313095Y-63381190D01*
X111360714Y-63357380D01*
X111384523Y-63333571D01*
X111408333Y-63285952D01*
X111408333Y-63143095D01*
X111384523Y-63095476D01*
X111360714Y-63071666D01*
X111313095Y-63047857D01*
X111217857Y-63047857D01*
X111170238Y-63071666D01*
X110575000Y-63238333D02*
X110336904Y-63238333D01*
X110622619Y-63381190D02*
X110455952Y-62881190D01*
X110289285Y-63381190D01*
X110146428Y-63357380D02*
X110098809Y-63381190D01*
X110003571Y-63381190D01*
X109955952Y-63357380D01*
X109932142Y-63309761D01*
X109932142Y-63285952D01*
X109955952Y-63238333D01*
X110003571Y-63214523D01*
X110075000Y-63214523D01*
X110122619Y-63190714D01*
X110146428Y-63143095D01*
X110146428Y-63119285D01*
X110122619Y-63071666D01*
X110075000Y-63047857D01*
X110003571Y-63047857D01*
X109955952Y-63071666D01*
X109789285Y-63047857D02*
X109598809Y-63047857D01*
X109717857Y-62881190D02*
X109717857Y-63309761D01*
X109694047Y-63357380D01*
X109646428Y-63381190D01*
X109598809Y-63381190D01*
X109432142Y-63381190D02*
X109432142Y-63047857D01*
X109432142Y-63143095D02*
X109408333Y-63095476D01*
X109384523Y-63071666D01*
X109336904Y-63047857D01*
X109289285Y-63047857D01*
X108908333Y-63381190D02*
X108908333Y-63119285D01*
X108932142Y-63071666D01*
X108979761Y-63047857D01*
X109075000Y-63047857D01*
X109122619Y-63071666D01*
X108908333Y-63357380D02*
X108955952Y-63381190D01*
X109075000Y-63381190D01*
X109122619Y-63357380D01*
X109146428Y-63309761D01*
X109146428Y-63262142D01*
X109122619Y-63214523D01*
X109075000Y-63190714D01*
X108955952Y-63190714D01*
X108908333Y-63166904D01*
X114575000Y-64088333D02*
X114336904Y-64088333D01*
X114622619Y-64231190D02*
X114455952Y-63731190D01*
X114289285Y-64231190D01*
X113955952Y-63969285D02*
X113884523Y-63993095D01*
X113860714Y-64016904D01*
X113836904Y-64064523D01*
X113836904Y-64135952D01*
X113860714Y-64183571D01*
X113884523Y-64207380D01*
X113932142Y-64231190D01*
X114122619Y-64231190D01*
X114122619Y-63731190D01*
X113955952Y-63731190D01*
X113908333Y-63755000D01*
X113884523Y-63778809D01*
X113860714Y-63826428D01*
X113860714Y-63874047D01*
X113884523Y-63921666D01*
X113908333Y-63945476D01*
X113955952Y-63969285D01*
X114122619Y-63969285D01*
X113360714Y-64231190D02*
X113646428Y-64231190D01*
X113503571Y-64231190D02*
X113503571Y-63731190D01*
X113551190Y-63802619D01*
X113598809Y-63850238D01*
X113646428Y-63874047D01*
X113217857Y-63731190D02*
X112932142Y-63731190D01*
X113075000Y-64231190D02*
X113075000Y-63731190D01*
X112622619Y-63731190D02*
X112622619Y-64088333D01*
X112646428Y-64159761D01*
X112694047Y-64207380D01*
X112765476Y-64231190D01*
X112813095Y-64231190D01*
X112003571Y-64231190D02*
X112003571Y-63731190D01*
X111717857Y-64231190D01*
X111717857Y-63731190D01*
X111408333Y-64231190D02*
X111455952Y-64207380D01*
X111479761Y-64183571D01*
X111503571Y-64135952D01*
X111503571Y-63993095D01*
X111479761Y-63945476D01*
X111455952Y-63921666D01*
X111408333Y-63897857D01*
X111336904Y-63897857D01*
X111289285Y-63921666D01*
X111265476Y-63945476D01*
X111241666Y-63993095D01*
X111241666Y-64135952D01*
X111265476Y-64183571D01*
X111289285Y-64207380D01*
X111336904Y-64231190D01*
X111408333Y-64231190D01*
X111075000Y-63897857D02*
X110955952Y-64231190D01*
X110836904Y-63897857D01*
X110289285Y-63778809D02*
X110265476Y-63755000D01*
X110217857Y-63731190D01*
X110098809Y-63731190D01*
X110051190Y-63755000D01*
X110027380Y-63778809D01*
X110003571Y-63826428D01*
X110003571Y-63874047D01*
X110027380Y-63945476D01*
X110313095Y-64231190D01*
X110003571Y-64231190D01*
X109694047Y-63731190D02*
X109646428Y-63731190D01*
X109598809Y-63755000D01*
X109575000Y-63778809D01*
X109551190Y-63826428D01*
X109527380Y-63921666D01*
X109527380Y-64040714D01*
X109551190Y-64135952D01*
X109575000Y-64183571D01*
X109598809Y-64207380D01*
X109646428Y-64231190D01*
X109694047Y-64231190D01*
X109741666Y-64207380D01*
X109765476Y-64183571D01*
X109789285Y-64135952D01*
X109813095Y-64040714D01*
X109813095Y-63921666D01*
X109789285Y-63826428D01*
X109765476Y-63778809D01*
X109741666Y-63755000D01*
X109694047Y-63731190D01*
X109051190Y-64231190D02*
X109336904Y-64231190D01*
X109194047Y-64231190D02*
X109194047Y-63731190D01*
X109241666Y-63802619D01*
X109289285Y-63850238D01*
X109336904Y-63874047D01*
X108622619Y-63731190D02*
X108717857Y-63731190D01*
X108765476Y-63755000D01*
X108789285Y-63778809D01*
X108836904Y-63850238D01*
X108860714Y-63945476D01*
X108860714Y-64135952D01*
X108836904Y-64183571D01*
X108813095Y-64207380D01*
X108765476Y-64231190D01*
X108670238Y-64231190D01*
X108622619Y-64207380D01*
X108598809Y-64183571D01*
X108575000Y-64135952D01*
X108575000Y-64016904D01*
X108598809Y-63969285D01*
X108622619Y-63945476D01*
X108670238Y-63921666D01*
X108765476Y-63921666D01*
X108813095Y-63945476D01*
X108836904Y-63969285D01*
X108860714Y-64016904D01*
X114170238Y-65057380D02*
X114098809Y-65081190D01*
X113979761Y-65081190D01*
X113932142Y-65057380D01*
X113908333Y-65033571D01*
X113884523Y-64985952D01*
X113884523Y-64938333D01*
X113908333Y-64890714D01*
X113932142Y-64866904D01*
X113979761Y-64843095D01*
X114075000Y-64819285D01*
X114122619Y-64795476D01*
X114146428Y-64771666D01*
X114170238Y-64724047D01*
X114170238Y-64676428D01*
X114146428Y-64628809D01*
X114122619Y-64605000D01*
X114075000Y-64581190D01*
X113955952Y-64581190D01*
X113884523Y-64605000D01*
X113670238Y-64747857D02*
X113670238Y-65247857D01*
X113670238Y-64771666D02*
X113622619Y-64747857D01*
X113527380Y-64747857D01*
X113479761Y-64771666D01*
X113455952Y-64795476D01*
X113432142Y-64843095D01*
X113432142Y-64985952D01*
X113455952Y-65033571D01*
X113479761Y-65057380D01*
X113527380Y-65081190D01*
X113622619Y-65081190D01*
X113670238Y-65057380D01*
X113027380Y-65057380D02*
X113075000Y-65081190D01*
X113170238Y-65081190D01*
X113217857Y-65057380D01*
X113241666Y-65009761D01*
X113241666Y-64819285D01*
X113217857Y-64771666D01*
X113170238Y-64747857D01*
X113075000Y-64747857D01*
X113027380Y-64771666D01*
X113003571Y-64819285D01*
X113003571Y-64866904D01*
X113241666Y-64914523D01*
X112836904Y-65081190D02*
X112575000Y-64747857D01*
X112836904Y-64747857D02*
X112575000Y-65081190D01*
X112003571Y-65081190D02*
X112003571Y-64581190D01*
X111813095Y-64581190D01*
X111765476Y-64605000D01*
X111741666Y-64628809D01*
X111717857Y-64676428D01*
X111717857Y-64747857D01*
X111741666Y-64795476D01*
X111765476Y-64819285D01*
X111813095Y-64843095D01*
X112003571Y-64843095D01*
X111503571Y-65081190D02*
X111503571Y-64747857D01*
X111503571Y-64843095D02*
X111479761Y-64795476D01*
X111455952Y-64771666D01*
X111408333Y-64747857D01*
X111360714Y-64747857D01*
X111003571Y-65057380D02*
X111051190Y-65081190D01*
X111146428Y-65081190D01*
X111194047Y-65057380D01*
X111217857Y-65009761D01*
X111217857Y-64819285D01*
X111194047Y-64771666D01*
X111146428Y-64747857D01*
X111051190Y-64747857D01*
X111003571Y-64771666D01*
X110979761Y-64819285D01*
X110979761Y-64866904D01*
X111217857Y-64914523D01*
X110789285Y-65057380D02*
X110741666Y-65081190D01*
X110646428Y-65081190D01*
X110598809Y-65057380D01*
X110575000Y-65009761D01*
X110575000Y-64985952D01*
X110598809Y-64938333D01*
X110646428Y-64914523D01*
X110717857Y-64914523D01*
X110765476Y-64890714D01*
X110789285Y-64843095D01*
X110789285Y-64819285D01*
X110765476Y-64771666D01*
X110717857Y-64747857D01*
X110646428Y-64747857D01*
X110598809Y-64771666D01*
X110384523Y-65057380D02*
X110336904Y-65081190D01*
X110241666Y-65081190D01*
X110194047Y-65057380D01*
X110170238Y-65009761D01*
X110170238Y-64985952D01*
X110194047Y-64938333D01*
X110241666Y-64914523D01*
X110313095Y-64914523D01*
X110360714Y-64890714D01*
X110384523Y-64843095D01*
X110384523Y-64819285D01*
X110360714Y-64771666D01*
X110313095Y-64747857D01*
X110241666Y-64747857D01*
X110194047Y-64771666D01*
X109741666Y-64747857D02*
X109741666Y-65081190D01*
X109955952Y-64747857D02*
X109955952Y-65009761D01*
X109932142Y-65057380D01*
X109884523Y-65081190D01*
X109813095Y-65081190D01*
X109765476Y-65057380D01*
X109741666Y-65033571D01*
X109503571Y-65081190D02*
X109503571Y-64747857D01*
X109503571Y-64843095D02*
X109479761Y-64795476D01*
X109455952Y-64771666D01*
X109408333Y-64747857D01*
X109360714Y-64747857D01*
X109003571Y-65057380D02*
X109051190Y-65081190D01*
X109146428Y-65081190D01*
X109194047Y-65057380D01*
X109217857Y-65009761D01*
X109217857Y-64819285D01*
X109194047Y-64771666D01*
X109146428Y-64747857D01*
X109051190Y-64747857D01*
X109003571Y-64771666D01*
X108979761Y-64819285D01*
X108979761Y-64866904D01*
X109217857Y-64914523D01*
X112741666Y-65907380D02*
X112670238Y-65931190D01*
X112551190Y-65931190D01*
X112503571Y-65907380D01*
X112479761Y-65883571D01*
X112455952Y-65835952D01*
X112455952Y-65788333D01*
X112479761Y-65740714D01*
X112503571Y-65716904D01*
X112551190Y-65693095D01*
X112646428Y-65669285D01*
X112694047Y-65645476D01*
X112717857Y-65621666D01*
X112741666Y-65574047D01*
X112741666Y-65526428D01*
X112717857Y-65478809D01*
X112694047Y-65455000D01*
X112646428Y-65431190D01*
X112527380Y-65431190D01*
X112455952Y-65455000D01*
X112051190Y-65907380D02*
X112098809Y-65931190D01*
X112194047Y-65931190D01*
X112241666Y-65907380D01*
X112265476Y-65859761D01*
X112265476Y-65669285D01*
X112241666Y-65621666D01*
X112194047Y-65597857D01*
X112098809Y-65597857D01*
X112051190Y-65621666D01*
X112027380Y-65669285D01*
X112027380Y-65716904D01*
X112265476Y-65764523D01*
X111813095Y-65597857D02*
X111813095Y-65931190D01*
X111813095Y-65645476D02*
X111789285Y-65621666D01*
X111741666Y-65597857D01*
X111670238Y-65597857D01*
X111622619Y-65621666D01*
X111598809Y-65669285D01*
X111598809Y-65931190D01*
X111384523Y-65907380D02*
X111336904Y-65931190D01*
X111241666Y-65931190D01*
X111194047Y-65907380D01*
X111170238Y-65859761D01*
X111170238Y-65835952D01*
X111194047Y-65788333D01*
X111241666Y-65764523D01*
X111313095Y-65764523D01*
X111360714Y-65740714D01*
X111384523Y-65693095D01*
X111384523Y-65669285D01*
X111360714Y-65621666D01*
X111313095Y-65597857D01*
X111241666Y-65597857D01*
X111194047Y-65621666D01*
X110884523Y-65931190D02*
X110932142Y-65907380D01*
X110955952Y-65883571D01*
X110979761Y-65835952D01*
X110979761Y-65693095D01*
X110955952Y-65645476D01*
X110932142Y-65621666D01*
X110884523Y-65597857D01*
X110813095Y-65597857D01*
X110765476Y-65621666D01*
X110741666Y-65645476D01*
X110717857Y-65693095D01*
X110717857Y-65835952D01*
X110741666Y-65883571D01*
X110765476Y-65907380D01*
X110813095Y-65931190D01*
X110884523Y-65931190D01*
X110503571Y-65931190D02*
X110503571Y-65597857D01*
X110503571Y-65693095D02*
X110479761Y-65645476D01*
X110455952Y-65621666D01*
X110408333Y-65597857D01*
X110360714Y-65597857D01*
D12*
X130200000Y-69275000D02*
X129700000Y-69275000D01*
X129700000Y-68325000D02*
X130200000Y-68325000D01*
X131300000Y-61600000D02*
X130600000Y-61600000D01*
X130600000Y-62800000D02*
X131300000Y-62800000D01*
X131300000Y-63300000D02*
X130600000Y-63300000D01*
X130600000Y-64500000D02*
X131300000Y-64500000D01*
X130350000Y-68150000D02*
G75*
G03X130350000Y-68150000I-100000J0D01*
G01*
X130800000Y-67900000D02*
X130300000Y-67900000D01*
X130800000Y-65000000D02*
X130800000Y-67900000D01*
X130300000Y-65000000D02*
X130800000Y-65000000D01*
X130300000Y-67900000D02*
X130300000Y-65000000D01*
X124425000Y-58125000D02*
X124425000Y-58625000D01*
X127675000Y-61375000D02*
X127675000Y-60875000D01*
X124425000Y-61375000D02*
X124425000Y-60875000D01*
X127675000Y-58125000D02*
X127175000Y-58125000D01*
X127675000Y-61375000D02*
X127175000Y-61375000D01*
X124425000Y-61375000D02*
X124925000Y-61375000D01*
X124425000Y-58125000D02*
X124925000Y-58125000D01*
X129501992Y-71255546D02*
X129855546Y-70901992D01*
X130598008Y-71644454D02*
X130244454Y-71998008D01*
X132214166Y-69257142D02*
X132261785Y-69304761D01*
X132404642Y-69352380D01*
X132499880Y-69352380D01*
X132642738Y-69304761D01*
X132737976Y-69209523D01*
X132785595Y-69114285D01*
X132833214Y-68923809D01*
X132833214Y-68780952D01*
X132785595Y-68590476D01*
X132737976Y-68495238D01*
X132642738Y-68400000D01*
X132499880Y-68352380D01*
X132404642Y-68352380D01*
X132261785Y-68400000D01*
X132214166Y-68447619D01*
X131261785Y-69352380D02*
X131833214Y-69352380D01*
X131547500Y-69352380D02*
X131547500Y-68352380D01*
X131642738Y-68495238D01*
X131737976Y-68590476D01*
X131833214Y-68638095D01*
X128414166Y-62832142D02*
X128461785Y-62879761D01*
X128604642Y-62927380D01*
X128699880Y-62927380D01*
X128842738Y-62879761D01*
X128937976Y-62784523D01*
X128985595Y-62689285D01*
X129033214Y-62498809D01*
X129033214Y-62355952D01*
X128985595Y-62165476D01*
X128937976Y-62070238D01*
X128842738Y-61975000D01*
X128699880Y-61927380D01*
X128604642Y-61927380D01*
X128461785Y-61975000D01*
X128414166Y-62022619D01*
X128080833Y-61927380D02*
X127461785Y-61927380D01*
X127795119Y-62308333D01*
X127652261Y-62308333D01*
X127557023Y-62355952D01*
X127509404Y-62403571D01*
X127461785Y-62498809D01*
X127461785Y-62736904D01*
X127509404Y-62832142D01*
X127557023Y-62879761D01*
X127652261Y-62927380D01*
X127937976Y-62927380D01*
X128033214Y-62879761D01*
X128080833Y-62832142D01*
X128214166Y-64407142D02*
X128261785Y-64454761D01*
X128404642Y-64502380D01*
X128499880Y-64502380D01*
X128642738Y-64454761D01*
X128737976Y-64359523D01*
X128785595Y-64264285D01*
X128833214Y-64073809D01*
X128833214Y-63930952D01*
X128785595Y-63740476D01*
X128737976Y-63645238D01*
X128642738Y-63550000D01*
X128499880Y-63502380D01*
X128404642Y-63502380D01*
X128261785Y-63550000D01*
X128214166Y-63597619D01*
X127357023Y-63835714D02*
X127357023Y-64502380D01*
X127595119Y-63454761D02*
X127833214Y-64169047D01*
X127214166Y-64169047D01*
X133784404Y-65977380D02*
X133784404Y-66786904D01*
X133736785Y-66882142D01*
X133689166Y-66929761D01*
X133593928Y-66977380D01*
X133403452Y-66977380D01*
X133308214Y-66929761D01*
X133260595Y-66882142D01*
X133212976Y-66786904D01*
X133212976Y-65977380D01*
X132784404Y-66072619D02*
X132736785Y-66025000D01*
X132641547Y-65977380D01*
X132403452Y-65977380D01*
X132308214Y-66025000D01*
X132260595Y-66072619D01*
X132212976Y-66167857D01*
X132212976Y-66263095D01*
X132260595Y-66405952D01*
X132832023Y-66977380D01*
X132212976Y-66977380D01*
X126909404Y-56352380D02*
X126909404Y-57161904D01*
X126861785Y-57257142D01*
X126814166Y-57304761D01*
X126718928Y-57352380D01*
X126528452Y-57352380D01*
X126433214Y-57304761D01*
X126385595Y-57257142D01*
X126337976Y-57161904D01*
X126337976Y-56352380D01*
X125957023Y-56352380D02*
X125337976Y-56352380D01*
X125671309Y-56733333D01*
X125528452Y-56733333D01*
X125433214Y-56780952D01*
X125385595Y-56828571D01*
X125337976Y-56923809D01*
X125337976Y-57161904D01*
X125385595Y-57257142D01*
X125433214Y-57304761D01*
X125528452Y-57352380D01*
X125814166Y-57352380D01*
X125909404Y-57304761D01*
X125957023Y-57257142D01*
X131431675Y-72558088D02*
X131330660Y-71985668D01*
X131835736Y-72154027D02*
X131128629Y-71446920D01*
X130859255Y-71716294D01*
X130825584Y-71817310D01*
X130825584Y-71884653D01*
X130859255Y-71985668D01*
X130960271Y-72086684D01*
X131061286Y-72120355D01*
X131128629Y-72120355D01*
X131229645Y-72086684D01*
X131499019Y-71817310D01*
X130623553Y-72558088D02*
X130657225Y-72457073D01*
X130657225Y-72389729D01*
X130623553Y-72288714D01*
X130589881Y-72255042D01*
X130488866Y-72221371D01*
X130421523Y-72221371D01*
X130320507Y-72255042D01*
X130185820Y-72389729D01*
X130152149Y-72490745D01*
X130152149Y-72558088D01*
X130185820Y-72659103D01*
X130219492Y-72692775D01*
X130320507Y-72726447D01*
X130387851Y-72726447D01*
X130488866Y-72692775D01*
X130623553Y-72558088D01*
X130724568Y-72524416D01*
X130791912Y-72524416D01*
X130892927Y-72558088D01*
X131027614Y-72692775D01*
X131061286Y-72793790D01*
X131061286Y-72861134D01*
X131027614Y-72962149D01*
X130892927Y-73096836D01*
X130791912Y-73130508D01*
X130724568Y-73130508D01*
X130623553Y-73096836D01*
X130488866Y-72962149D01*
X130455194Y-72861134D01*
X130455194Y-72793790D01*
X130488866Y-72692775D01*
M02*
