G04 #@! TF.FileFunction,Copper,L1,Top,Signal*
%FSLAX46Y46*%
G04 Gerber Fmt 4.6, Leading zero omitted, Abs format (unit mm)*
G04 Created by KiCad (PCBNEW (2016-03-30 BZR 6657, Git fe53ec8)-product) date Mon 11 Apr 2016 10:18:00 PM PDT*
%MOMM*%
G01*
G04 APERTURE LIST*
%ADD10C,0.100000*%
%ADD11R,0.350000X0.500000*%
%ADD12R,0.500000X0.600000*%
%ADD13C,2.032000*%
%ADD14R,3.657600X2.032000*%
%ADD15R,1.016000X2.032000*%
%ADD16R,0.600000X0.400000*%
%ADD17R,0.400000X0.600000*%
%ADD18R,0.797560X0.797560*%
%ADD19C,0.784860*%
%ADD20C,0.800000*%
%ADD21R,0.700000X0.250000*%
%ADD22R,1.650000X1.350000*%
%ADD23R,0.700000X1.300000*%
%ADD24C,5.000000*%
%ADD25C,3.700000*%
%ADD26C,0.600000*%
%ADD27C,0.250000*%
%ADD28C,0.500000*%
%ADD29C,0.152400*%
%ADD30C,1.000000*%
%ADD31C,0.254000*%
G04 APERTURE END LIST*
D10*
D11*
X114625000Y-53775000D03*
X114625000Y-55825000D03*
X115275000Y-53775000D03*
X115275000Y-55825000D03*
X115925000Y-53775000D03*
X115925000Y-55825000D03*
X116575000Y-53775000D03*
X116575000Y-55825000D03*
D10*
G36*
X130924264Y-71472182D02*
X131277818Y-71825736D01*
X130853554Y-72250000D01*
X130500000Y-71896446D01*
X130924264Y-71472182D01*
X130924264Y-71472182D01*
G37*
G36*
X130146446Y-72250000D02*
X130500000Y-72603554D01*
X130075736Y-73027818D01*
X129722182Y-72674264D01*
X130146446Y-72250000D01*
X130146446Y-72250000D01*
G37*
G36*
X129677818Y-66074264D02*
X129324264Y-66427818D01*
X128900000Y-66003554D01*
X129253554Y-65650000D01*
X129677818Y-66074264D01*
X129677818Y-66074264D01*
G37*
G36*
X128900000Y-65296446D02*
X128546446Y-65650000D01*
X128122182Y-65225736D01*
X128475736Y-64872182D01*
X128900000Y-65296446D01*
X128900000Y-65296446D01*
G37*
D12*
X113100000Y-54400000D03*
X113100000Y-55500000D03*
D10*
G36*
X112450000Y-70813159D02*
X113886841Y-72250000D01*
X112450000Y-73686841D01*
X111013159Y-72250000D01*
X112450000Y-70813159D01*
X112450000Y-70813159D01*
G37*
D13*
X110653949Y-70453949D02*
X110653949Y-70453949D01*
D14*
X111200000Y-66902000D03*
D15*
X111200000Y-60298000D03*
X108914000Y-60298000D03*
X113486000Y-60298000D03*
D16*
X113000000Y-58050000D03*
X113000000Y-57150000D03*
D17*
X116475000Y-60150000D03*
X115575000Y-60150000D03*
X129400000Y-63650000D03*
X128500000Y-63650000D03*
D16*
X115900000Y-58050000D03*
X115900000Y-57150000D03*
X114500000Y-58050000D03*
X114500000Y-57150000D03*
D18*
X131250700Y-63350000D03*
X132749300Y-63350000D03*
D19*
X121852962Y-53000987D03*
X122750987Y-52102962D03*
X122750987Y-53899013D03*
X123649013Y-53000987D03*
X123649013Y-54797038D03*
X124547038Y-53899013D03*
D10*
G36*
X125250000Y-75065685D02*
X124684315Y-74500000D01*
X125250000Y-73934315D01*
X125815685Y-74500000D01*
X125250000Y-75065685D01*
X125250000Y-75065685D01*
G37*
D20*
X126133883Y-73616117D02*
X126133883Y-73616117D01*
X127017767Y-72732233D02*
X127017767Y-72732233D01*
X127901650Y-71848350D02*
X127901650Y-71848350D01*
X128785534Y-70964466D02*
X128785534Y-70964466D01*
X129669417Y-70080583D02*
X129669417Y-70080583D01*
D12*
X113200000Y-75100000D03*
X113200000Y-76200000D03*
D16*
X115650000Y-71750000D03*
X115650000Y-72650000D03*
X118700000Y-75900000D03*
X118700000Y-76800000D03*
D21*
X114525000Y-74600000D03*
X114525000Y-75100000D03*
X114525000Y-75600000D03*
X117375000Y-75600000D03*
X117375000Y-75100000D03*
X117375000Y-74600000D03*
D22*
X115950000Y-75100000D03*
D16*
X117100000Y-71750000D03*
X117100000Y-72650000D03*
D23*
X117200000Y-69850000D03*
X115300000Y-69850000D03*
D10*
G36*
X125504505Y-65370621D02*
X125681282Y-65193844D01*
X126176257Y-65688819D01*
X125999480Y-65865596D01*
X125504505Y-65370621D01*
X125504505Y-65370621D01*
G37*
G36*
X125150951Y-65724175D02*
X125327728Y-65547398D01*
X125822703Y-66042373D01*
X125645926Y-66219150D01*
X125150951Y-65724175D01*
X125150951Y-65724175D01*
G37*
G36*
X124797398Y-66077728D02*
X124974175Y-65900951D01*
X125469150Y-66395926D01*
X125292373Y-66572703D01*
X124797398Y-66077728D01*
X124797398Y-66077728D01*
G37*
G36*
X124443844Y-66431282D02*
X124620621Y-66254505D01*
X125115596Y-66749480D01*
X124938819Y-66926257D01*
X124443844Y-66431282D01*
X124443844Y-66431282D01*
G37*
G36*
X126423743Y-68411181D02*
X126600520Y-68234404D01*
X127095495Y-68729379D01*
X126918718Y-68906156D01*
X126423743Y-68411181D01*
X126423743Y-68411181D01*
G37*
G36*
X126777297Y-68057627D02*
X126954074Y-67880850D01*
X127449049Y-68375825D01*
X127272272Y-68552602D01*
X126777297Y-68057627D01*
X126777297Y-68057627D01*
G37*
G36*
X127130850Y-67704074D02*
X127307627Y-67527297D01*
X127802602Y-68022272D01*
X127625825Y-68199049D01*
X127130850Y-67704074D01*
X127130850Y-67704074D01*
G37*
G36*
X127484404Y-67350520D02*
X127661181Y-67173743D01*
X128156156Y-67668718D01*
X127979379Y-67845495D01*
X127484404Y-67350520D01*
X127484404Y-67350520D01*
G37*
G36*
X125458543Y-67891457D02*
X126300000Y-67050000D01*
X126886899Y-67636899D01*
X126045442Y-68478356D01*
X125458543Y-67891457D01*
X125458543Y-67891457D01*
G37*
G36*
X126300000Y-67050000D02*
X127141457Y-66208543D01*
X127728356Y-66795442D01*
X126886899Y-67636899D01*
X126300000Y-67050000D01*
X126300000Y-67050000D01*
G37*
G36*
X124871644Y-67304558D02*
X125713101Y-66463101D01*
X126300000Y-67050000D01*
X125458543Y-67891457D01*
X124871644Y-67304558D01*
X124871644Y-67304558D01*
G37*
G36*
X125713101Y-66463101D02*
X126554558Y-65621644D01*
X127141457Y-66208543D01*
X126300000Y-67050000D01*
X125713101Y-66463101D01*
X125713101Y-66463101D01*
G37*
D24*
X120000000Y-57000000D03*
D25*
X120000000Y-73000000D03*
D24*
X120000000Y-65000000D03*
D26*
X112700000Y-55900000D03*
X129075000Y-62750000D03*
X127250000Y-65100000D03*
X122301124Y-72923296D03*
X122800000Y-74775000D03*
X115450000Y-77775000D03*
X120300000Y-78250000D03*
X124875000Y-77650000D03*
X127825000Y-74750000D03*
X132950000Y-68500000D03*
X133300000Y-64275000D03*
X132425000Y-60175000D03*
X126875000Y-53575000D03*
X122875000Y-58250000D03*
X124875000Y-56800000D03*
X117575000Y-53650000D03*
X121225000Y-53650000D03*
X119450000Y-51625000D03*
X116225000Y-51950000D03*
X114875000Y-52600000D03*
X114050000Y-72950000D03*
X111640000Y-74180000D03*
X116140000Y-73890000D03*
X116280000Y-71060000D03*
X116750000Y-68450000D03*
X118390000Y-70850000D03*
X121180000Y-70820000D03*
X122340000Y-68897590D03*
X123822339Y-69957661D03*
X122400000Y-71360000D03*
X124002567Y-72962567D03*
X125520000Y-71170000D03*
X129720000Y-72880000D03*
X130311499Y-69210000D03*
X127846913Y-69767048D03*
X130873682Y-66592388D03*
X127620000Y-61350000D03*
X127540000Y-56450000D03*
X128430000Y-55160000D03*
X130550000Y-58630000D03*
X129670000Y-61220000D03*
X122950000Y-55250000D03*
X108800000Y-61590000D03*
X125600000Y-60200000D03*
X126500000Y-60200000D03*
X126500000Y-59300000D03*
X125600000Y-59300000D03*
X115950000Y-75100000D03*
X125585822Y-67177279D03*
X126172721Y-67764178D03*
X126427279Y-66335822D03*
X127014178Y-66922721D03*
X130250000Y-64700000D03*
X131620000Y-64590000D03*
X131300000Y-72300000D03*
X112450000Y-75250000D03*
X122700000Y-53000000D03*
X131750000Y-68300000D03*
X123600000Y-61300000D03*
X125777410Y-64223485D03*
X125374407Y-63566432D03*
X125121995Y-62844585D03*
X126800000Y-64100000D03*
X126400000Y-55850000D03*
X126850000Y-57350000D03*
X124615384Y-52830881D03*
X116000000Y-59300000D03*
X114968017Y-57429956D03*
X119500000Y-75850000D03*
X122478522Y-60900009D03*
D27*
X112700000Y-55900000D02*
X112150000Y-56450000D01*
X112150000Y-56450000D02*
X111200000Y-56450000D01*
X111200000Y-56450000D02*
X111200000Y-54825678D01*
X111200000Y-54825678D02*
X112253886Y-53771792D01*
X112253886Y-53771792D02*
X113703208Y-53771792D01*
X113703208Y-53771792D02*
X114875000Y-52600000D01*
D28*
X113000000Y-57150000D02*
X113000000Y-56200000D01*
X113000000Y-56200000D02*
X112700000Y-55900000D01*
D27*
X113100000Y-55500000D02*
X112700000Y-55900000D01*
X114625000Y-55575000D02*
X114625000Y-55075000D01*
X114625000Y-55075000D02*
X115147599Y-54552401D01*
X115147599Y-54552401D02*
X115302401Y-54552401D01*
X115275000Y-54025000D02*
X115275000Y-54525000D01*
X115275000Y-54525000D02*
X115302401Y-54552401D01*
X115302401Y-54552401D02*
X116547599Y-54552401D01*
X116547599Y-54552401D02*
X116575000Y-54525000D01*
X116575000Y-54525000D02*
X116575000Y-54025000D01*
X116575000Y-54025000D02*
X117200000Y-54025000D01*
X117200000Y-54025000D02*
X117575000Y-53650000D01*
X127250000Y-65100000D02*
X127650000Y-64700000D01*
X127650000Y-64700000D02*
X130250000Y-64700000D01*
X122800000Y-74775000D02*
X122800000Y-73422172D01*
X122800000Y-73422172D02*
X122301124Y-72923296D01*
X120300000Y-78250000D02*
X119825000Y-77775000D01*
X119825000Y-77775000D02*
X115450000Y-77775000D01*
X127825000Y-74750000D02*
X124925000Y-77650000D01*
X124925000Y-77650000D02*
X124875000Y-77650000D01*
X133300000Y-64275000D02*
X132950000Y-64625000D01*
X132950000Y-64625000D02*
X132950000Y-68500000D01*
X126875000Y-53575000D02*
X132425000Y-59125000D01*
X132425000Y-59125000D02*
X132425000Y-60175000D01*
X124875000Y-56800000D02*
X123425000Y-58250000D01*
X123425000Y-58250000D02*
X122875000Y-58250000D01*
X121225000Y-53650000D02*
X117575000Y-53650000D01*
X116225000Y-51950000D02*
X116550000Y-51625000D01*
X116550000Y-51625000D02*
X119450000Y-51625000D01*
X117950000Y-57000000D02*
X120000000Y-57000000D01*
X109100000Y-60112000D02*
X108914000Y-60298000D01*
X111640000Y-74180000D02*
X112820000Y-74180000D01*
X112820000Y-74180000D02*
X114050000Y-72950000D01*
X116140000Y-73890000D02*
X116140000Y-74910000D01*
X116140000Y-74910000D02*
X115950000Y-75100000D01*
X116750000Y-68450000D02*
X116280000Y-68920000D01*
X116280000Y-68920000D02*
X116280000Y-71060000D01*
X121180000Y-70820000D02*
X118420000Y-70820000D01*
X118420000Y-70820000D02*
X118390000Y-70850000D01*
X123822339Y-69957661D02*
X122762268Y-68897590D01*
X122762268Y-68897590D02*
X122340000Y-68897590D01*
X124002567Y-72962567D02*
X122400000Y-71360000D01*
X127901650Y-71848350D02*
X126198350Y-71848350D01*
X126198350Y-71848350D02*
X125520000Y-71170000D01*
X130111091Y-72638909D02*
X129961091Y-72638909D01*
X129961091Y-72638909D02*
X129720000Y-72880000D01*
X127509339Y-69320000D02*
X126759619Y-68570280D01*
X127901650Y-71848350D02*
X127846913Y-69767048D01*
X127509339Y-69320000D02*
X127509339Y-69429474D01*
X127509339Y-69429474D02*
X127846913Y-69767048D01*
X126500000Y-60200000D02*
X126500000Y-60230000D01*
X126500000Y-60230000D02*
X127620000Y-61350000D01*
X128430000Y-55160000D02*
X128430000Y-55560000D01*
X128430000Y-55560000D02*
X127540000Y-56450000D01*
X129670000Y-61220000D02*
X129670000Y-59510000D01*
X129670000Y-59510000D02*
X130550000Y-58630000D01*
X122650000Y-54950000D02*
X122950000Y-55250000D01*
X122650000Y-54797038D02*
X122202962Y-54797038D01*
X123649013Y-54797038D02*
X122650000Y-54797038D01*
X122650000Y-54797038D02*
X122650000Y-54950000D01*
D28*
X108914000Y-60298000D02*
X108914000Y-61476000D01*
X108914000Y-61476000D02*
X108800000Y-61590000D01*
D27*
X125600000Y-59300000D02*
X125600000Y-58600000D01*
X125600000Y-58600000D02*
X124000000Y-57000000D01*
X124000000Y-57000000D02*
X123535533Y-57000000D01*
X123535533Y-57000000D02*
X120000000Y-57000000D01*
X127901650Y-71848350D02*
X127901650Y-72947773D01*
X127901650Y-72947773D02*
X126349423Y-74500000D01*
X126349423Y-74500000D02*
X125915685Y-74500000D01*
X125915685Y-74500000D02*
X125250000Y-74500000D01*
X118700000Y-76800000D02*
X122950000Y-76800000D01*
X122950000Y-76800000D02*
X125250000Y-74500000D01*
X126172721Y-67764178D02*
X126172721Y-67983382D01*
X126172721Y-67983382D02*
X126759619Y-68570280D01*
X127014178Y-66922721D02*
X127014178Y-66758004D01*
X127014178Y-66758004D02*
X128511091Y-65261091D01*
X122202962Y-54797038D02*
X120000000Y-57000000D01*
X128511091Y-65261091D02*
X129688909Y-65261091D01*
X129688909Y-65261091D02*
X130250000Y-64700000D01*
X130111091Y-72638909D02*
X128692209Y-72638909D01*
X128692209Y-72638909D02*
X127901650Y-71848350D01*
X108914000Y-59790000D02*
X108914000Y-60298000D01*
D29*
X115950000Y-75100000D02*
X115950000Y-75927400D01*
X115950000Y-75927400D02*
X116822600Y-76800000D01*
X116822600Y-76800000D02*
X118247600Y-76800000D01*
X118247600Y-76800000D02*
X118700000Y-76800000D01*
X114525000Y-75600000D02*
X115450000Y-75600000D01*
X115450000Y-75600000D02*
X115950000Y-75100000D01*
X114525000Y-75600000D02*
X113750000Y-75600000D01*
X113750000Y-75600000D02*
X113200000Y-76150000D01*
X113200000Y-76150000D02*
X113200000Y-76200000D01*
D27*
X114500000Y-58050000D02*
X113950000Y-58050000D01*
X113950000Y-58050000D02*
X113900000Y-58000000D01*
X113900000Y-58000000D02*
X113900000Y-56102401D01*
X115900000Y-58050000D02*
X114500000Y-58050000D01*
X113100000Y-54400000D02*
X113825000Y-54400000D01*
X113825000Y-54400000D02*
X113900000Y-54325000D01*
X115021921Y-56102401D02*
X113900000Y-56102401D01*
X114625000Y-54025000D02*
X114200000Y-54025000D01*
X114200000Y-54025000D02*
X113900000Y-54325000D01*
X113900000Y-54325000D02*
X113900000Y-56102401D01*
X115275000Y-55575000D02*
X115275000Y-55849322D01*
X115275000Y-55849322D02*
X115021921Y-56102401D01*
X115925000Y-54025000D02*
X115925000Y-53379802D01*
X115925000Y-53379802D02*
X115722599Y-53177401D01*
X116291442Y-52608558D02*
X115722599Y-53177401D01*
X115722599Y-53177401D02*
X114972599Y-53177401D01*
X114972599Y-53177401D02*
X114625000Y-53525000D01*
X114625000Y-53525000D02*
X114625000Y-54025000D01*
X121852962Y-53000987D02*
X121460533Y-52608558D01*
X121460533Y-52608558D02*
X116291442Y-52608558D01*
X130709171Y-66038909D02*
X132020000Y-64728080D01*
X132020000Y-64728080D02*
X132749300Y-63998780D01*
X131620000Y-64590000D02*
X131758080Y-64728080D01*
X131758080Y-64728080D02*
X132020000Y-64728080D01*
X128482184Y-67827816D02*
X128940000Y-67370000D01*
X128940000Y-67370000D02*
X129880000Y-66430000D01*
X129288909Y-66038909D02*
X129041422Y-66286396D01*
X129041422Y-66286396D02*
X129041422Y-67268578D01*
X129041422Y-67268578D02*
X128940000Y-67370000D01*
X130950000Y-67500000D02*
X129880000Y-66430000D01*
X129880000Y-66430000D02*
X129488909Y-66038909D01*
X127820280Y-67509619D02*
X128138477Y-67827816D01*
X128138477Y-67827816D02*
X128482184Y-67827816D01*
X131300000Y-72300000D02*
X131300000Y-72272182D01*
X131300000Y-72272182D02*
X130888909Y-71861091D01*
X113200000Y-75100000D02*
X112600000Y-75100000D01*
X112600000Y-75100000D02*
X112450000Y-75250000D01*
X121852962Y-53000987D02*
X122699013Y-53000987D01*
X122699013Y-53000987D02*
X122700000Y-53000000D01*
X129288909Y-66038909D02*
X130709171Y-66038909D01*
X132749300Y-63998780D02*
X132749300Y-63350000D01*
X131750000Y-68300000D02*
X130950000Y-67500000D01*
X130940381Y-67509619D02*
X130950000Y-67500000D01*
X129488909Y-66038909D02*
X129288909Y-66038909D01*
X130888909Y-71861091D02*
X130888909Y-69161091D01*
X130888909Y-69161091D02*
X131750000Y-68300000D01*
D29*
X113200000Y-75100000D02*
X114525000Y-75100000D01*
D27*
X129400000Y-63650000D02*
X130950700Y-63650000D01*
X130950700Y-63650000D02*
X131250700Y-63350000D01*
D30*
X111200000Y-60298000D02*
X111200000Y-66902000D01*
X110653949Y-70453949D02*
X110653949Y-67448051D01*
X110653949Y-67448051D02*
X111200000Y-66902000D01*
D28*
X113500000Y-58345870D02*
X113486000Y-58359870D01*
X113486000Y-58359870D02*
X113486000Y-60298000D01*
X113000000Y-58050000D02*
X113204130Y-58050000D01*
X113204130Y-58050000D02*
X113500000Y-58345870D01*
X115575000Y-60150000D02*
X113634000Y-60150000D01*
X113634000Y-60150000D02*
X113486000Y-60298000D01*
D27*
X113486000Y-59790000D02*
X113486000Y-60298000D01*
X123600000Y-61300000D02*
X124024264Y-61300000D01*
X124024264Y-61300000D02*
X124589038Y-61864774D01*
X124589038Y-61864774D02*
X126264774Y-61864774D01*
X126264774Y-61864774D02*
X128050000Y-63650000D01*
X128050000Y-63650000D02*
X128500000Y-63650000D01*
X125602410Y-64750000D02*
X125602410Y-64398485D01*
X125602410Y-64398485D02*
X125777410Y-64223485D01*
X125602410Y-65302410D02*
X125602410Y-64750000D01*
X125840381Y-65529720D02*
X125829720Y-65529720D01*
X125829720Y-65529720D02*
X125602410Y-65302410D01*
X125200000Y-64700000D02*
X125200000Y-63740839D01*
X125200000Y-63740839D02*
X125374407Y-63566432D01*
X125200000Y-65650000D02*
X125200000Y-64700000D01*
X125486827Y-65883274D02*
X125433274Y-65883274D01*
X125433274Y-65883274D02*
X125200000Y-65650000D01*
X124796997Y-65319585D02*
X124796997Y-63169583D01*
X124796997Y-63169583D02*
X125121995Y-62844585D01*
X124796997Y-65319585D02*
X124796997Y-65900550D01*
X124796997Y-65900550D02*
X124815077Y-65918630D01*
X124815077Y-65918630D02*
X125133274Y-66236827D01*
X126800000Y-64100000D02*
X126800000Y-63668036D01*
X126800000Y-63668036D02*
X125399148Y-62267184D01*
X125399148Y-62267184D02*
X124844842Y-62267184D01*
X124844842Y-62267184D02*
X124394587Y-62717439D01*
X124394587Y-62717439D02*
X124394587Y-66205248D01*
X124394587Y-66205248D02*
X124461523Y-66272184D01*
X124461523Y-66272184D02*
X124779720Y-66590381D01*
D29*
X125173485Y-52467581D02*
X125173485Y-52631937D01*
X125173485Y-52631937D02*
X126699999Y-54158451D01*
X126699999Y-54158451D02*
X126699999Y-55550001D01*
X124808866Y-52102962D02*
X125173485Y-52467581D01*
X126699999Y-55550001D02*
X126400000Y-55850000D01*
X122750987Y-52102962D02*
X124808866Y-52102962D01*
X122750987Y-53899013D02*
X123649013Y-53899013D01*
X123649013Y-53899013D02*
X126850000Y-57100000D01*
X126850000Y-57100000D02*
X126850000Y-57350000D01*
X123649013Y-53000987D02*
X124445278Y-53000987D01*
X124445278Y-53000987D02*
X124615384Y-52830881D01*
D27*
X127113173Y-68216726D02*
X128785534Y-69889087D01*
X128785534Y-69889087D02*
X128785534Y-70964466D01*
X129669417Y-70080583D02*
X127466726Y-67877892D01*
X127466726Y-67877892D02*
X127466726Y-67863173D01*
D30*
X115300000Y-69850000D02*
X114850000Y-69850000D01*
X114850000Y-69850000D02*
X112450000Y-72250000D01*
D29*
X115300000Y-69850000D02*
X115300000Y-71400000D01*
X115300000Y-71400000D02*
X115650000Y-71750000D01*
X117375000Y-74600000D02*
X117877400Y-74600000D01*
X117877400Y-74600000D02*
X118150000Y-74327400D01*
X118147600Y-74050000D02*
X117100000Y-73002400D01*
X118150000Y-74327400D02*
X118150000Y-74050000D01*
X117100000Y-73002400D02*
X117100000Y-72650000D01*
X118150000Y-74050000D02*
X118147600Y-74050000D01*
X113950000Y-74527400D02*
X113950000Y-74250000D01*
X113950000Y-74250000D02*
X115550000Y-72650000D01*
X115550000Y-72650000D02*
X115650000Y-72650000D01*
X114525000Y-74600000D02*
X114022600Y-74600000D01*
X114022600Y-74600000D02*
X113950000Y-74527400D01*
D30*
X122367766Y-69850000D02*
X125200000Y-72682234D01*
X125200000Y-72682234D02*
X126133883Y-73616117D01*
X127017767Y-72732233D02*
X125249999Y-72732233D01*
X125249999Y-72732233D02*
X125200000Y-72682234D01*
X117200000Y-69850000D02*
X122367766Y-69850000D01*
D29*
X117200000Y-69850000D02*
X117200000Y-71650000D01*
X117200000Y-71650000D02*
X117100000Y-71750000D01*
D27*
X115900000Y-57150000D02*
X116575000Y-56475000D01*
X116575000Y-56475000D02*
X116575000Y-55575000D01*
X116000000Y-59300000D02*
X116477401Y-58822599D01*
X116477401Y-58822599D02*
X116477401Y-57627401D01*
X116477401Y-57627401D02*
X116000000Y-57150000D01*
X116000000Y-57150000D02*
X115900000Y-57150000D01*
X114500000Y-57150000D02*
X114850000Y-57150000D01*
X114850000Y-57150000D02*
X115925000Y-56075000D01*
X115925000Y-56075000D02*
X115925000Y-55575000D01*
X114968017Y-57429956D02*
X114779956Y-57429956D01*
X114779956Y-57429956D02*
X114500000Y-57150000D01*
X119500000Y-75850000D02*
X118750000Y-75850000D01*
X118750000Y-75850000D02*
X118700000Y-75900000D01*
D29*
X117375000Y-75600000D02*
X118400000Y-75600000D01*
X118400000Y-75600000D02*
X118700000Y-75900000D01*
D28*
X116475000Y-60150000D02*
X121728513Y-60150000D01*
X121728513Y-60150000D02*
X122478522Y-60900009D01*
D31*
G36*
X110748000Y-55699305D02*
X110748000Y-56450000D01*
X110782406Y-56622973D01*
X110880388Y-56769612D01*
X111027027Y-56867594D01*
X111200000Y-56902000D01*
X112150000Y-56902000D01*
X112322973Y-56867594D01*
X112393086Y-56820746D01*
X112391973Y-56822411D01*
X112366594Y-56950000D01*
X112366594Y-57350000D01*
X112391973Y-57477589D01*
X112464246Y-57585754D01*
X112485567Y-57600000D01*
X112464246Y-57614246D01*
X112391973Y-57722411D01*
X112366594Y-57850000D01*
X112366594Y-58250000D01*
X112391973Y-58377589D01*
X112464246Y-58485754D01*
X112572411Y-58558027D01*
X112700000Y-58583406D01*
X112780841Y-58583406D01*
X112909000Y-58608899D01*
X112909000Y-58962319D01*
X112850411Y-58973973D01*
X112742246Y-59046246D01*
X112669973Y-59154411D01*
X112644594Y-59282000D01*
X112644594Y-61314000D01*
X112669973Y-61441589D01*
X112742246Y-61549754D01*
X112850411Y-61622027D01*
X112978000Y-61647406D01*
X113994000Y-61647406D01*
X114121589Y-61622027D01*
X114229754Y-61549754D01*
X114302027Y-61441589D01*
X114327406Y-61314000D01*
X114327406Y-60727000D01*
X115200975Y-60727000D01*
X115247411Y-60758027D01*
X115375000Y-60783406D01*
X115775000Y-60783406D01*
X115902589Y-60758027D01*
X116010754Y-60685754D01*
X116025000Y-60664433D01*
X116039246Y-60685754D01*
X116147411Y-60758027D01*
X116275000Y-60783406D01*
X116675000Y-60783406D01*
X116802589Y-60758027D01*
X116849025Y-60727000D01*
X117178244Y-60727000D01*
X117523139Y-61446565D01*
X115877814Y-62843178D01*
X115847018Y-62882000D01*
X115833371Y-62930297D01*
X115633371Y-65540297D01*
X115639219Y-65589254D01*
X116003858Y-66711221D01*
X109513131Y-72611882D01*
X108931340Y-72484172D01*
X108185944Y-71368608D01*
X107137668Y-68824135D01*
X106390627Y-65068509D01*
X106388957Y-64939889D01*
X107261821Y-60551703D01*
X107610330Y-59492859D01*
X107751221Y-59282000D01*
X108072594Y-59282000D01*
X108072594Y-61314000D01*
X108097973Y-61441589D01*
X108170246Y-61549754D01*
X108173033Y-61551616D01*
X108172891Y-61714171D01*
X108268145Y-61944703D01*
X108444369Y-62121235D01*
X108674735Y-62216891D01*
X108924171Y-62217109D01*
X109154703Y-62121855D01*
X109331235Y-61945631D01*
X109413997Y-61746318D01*
X109447078Y-61696808D01*
X109458343Y-61640177D01*
X109549589Y-61622027D01*
X109657754Y-61549754D01*
X109730027Y-61441589D01*
X109755406Y-61314000D01*
X109755406Y-59282000D01*
X109730027Y-59154411D01*
X109657754Y-59046246D01*
X109549589Y-58973973D01*
X109422000Y-58948594D01*
X108406000Y-58948594D01*
X108278411Y-58973973D01*
X108170246Y-59046246D01*
X108097973Y-59154411D01*
X108072594Y-59282000D01*
X107751221Y-59282000D01*
X110306238Y-55458146D01*
X110748000Y-55699305D01*
X110748000Y-55699305D01*
G37*
X110748000Y-55699305D02*
X110748000Y-56450000D01*
X110782406Y-56622973D01*
X110880388Y-56769612D01*
X111027027Y-56867594D01*
X111200000Y-56902000D01*
X112150000Y-56902000D01*
X112322973Y-56867594D01*
X112393086Y-56820746D01*
X112391973Y-56822411D01*
X112366594Y-56950000D01*
X112366594Y-57350000D01*
X112391973Y-57477589D01*
X112464246Y-57585754D01*
X112485567Y-57600000D01*
X112464246Y-57614246D01*
X112391973Y-57722411D01*
X112366594Y-57850000D01*
X112366594Y-58250000D01*
X112391973Y-58377589D01*
X112464246Y-58485754D01*
X112572411Y-58558027D01*
X112700000Y-58583406D01*
X112780841Y-58583406D01*
X112909000Y-58608899D01*
X112909000Y-58962319D01*
X112850411Y-58973973D01*
X112742246Y-59046246D01*
X112669973Y-59154411D01*
X112644594Y-59282000D01*
X112644594Y-61314000D01*
X112669973Y-61441589D01*
X112742246Y-61549754D01*
X112850411Y-61622027D01*
X112978000Y-61647406D01*
X113994000Y-61647406D01*
X114121589Y-61622027D01*
X114229754Y-61549754D01*
X114302027Y-61441589D01*
X114327406Y-61314000D01*
X114327406Y-60727000D01*
X115200975Y-60727000D01*
X115247411Y-60758027D01*
X115375000Y-60783406D01*
X115775000Y-60783406D01*
X115902589Y-60758027D01*
X116010754Y-60685754D01*
X116025000Y-60664433D01*
X116039246Y-60685754D01*
X116147411Y-60758027D01*
X116275000Y-60783406D01*
X116675000Y-60783406D01*
X116802589Y-60758027D01*
X116849025Y-60727000D01*
X117178244Y-60727000D01*
X117523139Y-61446565D01*
X115877814Y-62843178D01*
X115847018Y-62882000D01*
X115833371Y-62930297D01*
X115633371Y-65540297D01*
X115639219Y-65589254D01*
X116003858Y-66711221D01*
X109513131Y-72611882D01*
X108931340Y-72484172D01*
X108185944Y-71368608D01*
X107137668Y-68824135D01*
X106390627Y-65068509D01*
X106388957Y-64939889D01*
X107261821Y-60551703D01*
X107610330Y-59492859D01*
X107751221Y-59282000D01*
X108072594Y-59282000D01*
X108072594Y-61314000D01*
X108097973Y-61441589D01*
X108170246Y-61549754D01*
X108173033Y-61551616D01*
X108172891Y-61714171D01*
X108268145Y-61944703D01*
X108444369Y-62121235D01*
X108674735Y-62216891D01*
X108924171Y-62217109D01*
X109154703Y-62121855D01*
X109331235Y-61945631D01*
X109413997Y-61746318D01*
X109447078Y-61696808D01*
X109458343Y-61640177D01*
X109549589Y-61622027D01*
X109657754Y-61549754D01*
X109730027Y-61441589D01*
X109755406Y-61314000D01*
X109755406Y-59282000D01*
X109730027Y-59154411D01*
X109657754Y-59046246D01*
X109549589Y-58973973D01*
X109422000Y-58948594D01*
X108406000Y-58948594D01*
X108278411Y-58973973D01*
X108170246Y-59046246D01*
X108097973Y-59154411D01*
X108072594Y-59282000D01*
X107751221Y-59282000D01*
X110306238Y-55458146D01*
X110748000Y-55699305D01*
G36*
X127730388Y-63969612D02*
X127877027Y-64067594D01*
X128001890Y-64092430D01*
X128064246Y-64185754D01*
X128172411Y-64258027D01*
X128300000Y-64283406D01*
X128700000Y-64283406D01*
X128827589Y-64258027D01*
X128935754Y-64185754D01*
X128950000Y-64164433D01*
X128964246Y-64185754D01*
X129072411Y-64258027D01*
X129200000Y-64283406D01*
X129600000Y-64283406D01*
X129727589Y-64258027D01*
X129835754Y-64185754D01*
X129891716Y-64102000D01*
X130950700Y-64102000D01*
X131050313Y-64082186D01*
X131241214Y-64082186D01*
X131088765Y-64234369D01*
X130993109Y-64464735D01*
X130992891Y-64714171D01*
X131088145Y-64944703D01*
X131126116Y-64982740D01*
X130521947Y-65586909D01*
X129661971Y-65586909D01*
X129489308Y-65414246D01*
X129381143Y-65341973D01*
X129327000Y-65331203D01*
X129327000Y-65211511D01*
X129261992Y-65054570D01*
X129155089Y-64947666D01*
X129004121Y-64947666D01*
X128689282Y-65262505D01*
X128703424Y-65276648D01*
X128526648Y-65453424D01*
X128512505Y-65439282D01*
X128197666Y-65754121D01*
X128197666Y-65905089D01*
X128304570Y-66011992D01*
X128461511Y-66077000D01*
X128581203Y-66077000D01*
X128591973Y-66131143D01*
X128613804Y-66163816D01*
X128589422Y-66286396D01*
X128589422Y-67081353D01*
X128314861Y-67355915D01*
X128043306Y-67084360D01*
X128090349Y-67037318D01*
X128155356Y-66880377D01*
X128155356Y-66710506D01*
X128090349Y-66553565D01*
X127902127Y-66365344D01*
X127751160Y-66365344D01*
X127193783Y-66922721D01*
X127207926Y-66936864D01*
X127028321Y-67116469D01*
X127014178Y-67102326D01*
X126352326Y-67764178D01*
X126366469Y-67778321D01*
X126186864Y-67957926D01*
X126172721Y-67943783D01*
X125615344Y-68501160D01*
X125615344Y-68652127D01*
X125803565Y-68840349D01*
X125960506Y-68905356D01*
X126130377Y-68905356D01*
X126287318Y-68840349D01*
X126332350Y-68795317D01*
X126354977Y-68795317D01*
X126625622Y-68524672D01*
X126611480Y-68510530D01*
X126675472Y-68446537D01*
X126678301Y-68449366D01*
X126687915Y-68439753D01*
X127036518Y-68788356D01*
X127063824Y-68806601D01*
X128333534Y-70076312D01*
X128333534Y-70405586D01*
X128281538Y-70440328D01*
X128261396Y-70460470D01*
X128103803Y-70696327D01*
X128048462Y-70974537D01*
X128063578Y-71050527D01*
X127834368Y-71024074D01*
X127524052Y-71112566D01*
X127489083Y-71256178D01*
X127901650Y-71668745D01*
X127915792Y-71654602D01*
X128095398Y-71834208D01*
X128081255Y-71848350D01*
X128493822Y-72260917D01*
X128637434Y-72225948D01*
X128725926Y-71915632D01*
X128699473Y-71686422D01*
X128775463Y-71701538D01*
X129053673Y-71646197D01*
X129289530Y-71488604D01*
X129309672Y-71468462D01*
X129467265Y-71232606D01*
X129522605Y-70954395D01*
X129488651Y-70783701D01*
X129659346Y-70817655D01*
X129937556Y-70762314D01*
X130173413Y-70604721D01*
X130193555Y-70584579D01*
X130351148Y-70348723D01*
X130406488Y-70070512D01*
X130351148Y-69792302D01*
X130193555Y-69556445D01*
X129957698Y-69398852D01*
X129679488Y-69343512D01*
X129589476Y-69361417D01*
X128503612Y-68275554D01*
X128655157Y-68245410D01*
X128801796Y-68147428D01*
X129259613Y-67689612D01*
X129259615Y-67689609D01*
X129361034Y-67588191D01*
X129361036Y-67588188D01*
X129880000Y-67069224D01*
X130582031Y-67771256D01*
X130620769Y-67829231D01*
X130678747Y-67867971D01*
X131110776Y-68300000D01*
X130569297Y-68841479D01*
X130471315Y-68988118D01*
X130436909Y-69161091D01*
X130436909Y-71488029D01*
X130264246Y-71660692D01*
X130191973Y-71768857D01*
X130181203Y-71823000D01*
X130061511Y-71823000D01*
X129904570Y-71888008D01*
X129797666Y-71994911D01*
X129797666Y-72145879D01*
X130112505Y-72460718D01*
X130126648Y-72446576D01*
X130303424Y-72623352D01*
X130289282Y-72637495D01*
X130604121Y-72952334D01*
X130755089Y-72952334D01*
X130757367Y-72950056D01*
X129824007Y-74346927D01*
X128600177Y-75322970D01*
X125530572Y-77374014D01*
X123586362Y-77909628D01*
X120229962Y-78577258D01*
X114417367Y-77339228D01*
X113919778Y-77006750D01*
X117973000Y-77006750D01*
X117973000Y-77084935D01*
X118038007Y-77241876D01*
X118158124Y-77361993D01*
X118315064Y-77427000D01*
X118466250Y-77427000D01*
X118573000Y-77320250D01*
X118573000Y-76900000D01*
X118827000Y-76900000D01*
X118827000Y-77320250D01*
X118933750Y-77427000D01*
X119084936Y-77427000D01*
X119241876Y-77361993D01*
X119361993Y-77241876D01*
X119427000Y-77084935D01*
X119427000Y-77006750D01*
X119320250Y-76900000D01*
X118827000Y-76900000D01*
X118573000Y-76900000D01*
X118079750Y-76900000D01*
X117973000Y-77006750D01*
X113919778Y-77006750D01*
X113696385Y-76857484D01*
X113811993Y-76741876D01*
X113877000Y-76584935D01*
X113877000Y-76433750D01*
X113770250Y-76327000D01*
X113325000Y-76327000D01*
X113325000Y-76347000D01*
X113075000Y-76347000D01*
X113075000Y-76327000D01*
X113053000Y-76327000D01*
X113053000Y-76073000D01*
X113075000Y-76073000D01*
X113075000Y-76053000D01*
X113325000Y-76053000D01*
X113325000Y-76073000D01*
X113770250Y-76073000D01*
X113844691Y-75998560D01*
X113933124Y-76086993D01*
X114090065Y-76152000D01*
X114291250Y-76152000D01*
X114398000Y-76045250D01*
X114398000Y-75662500D01*
X114378000Y-75662500D01*
X114378000Y-75558406D01*
X114672000Y-75558406D01*
X114672000Y-75662500D01*
X114652000Y-75662500D01*
X114652000Y-76045250D01*
X114758750Y-76152000D01*
X114919354Y-76152000D01*
X115040065Y-76202000D01*
X115716250Y-76202000D01*
X115823000Y-76095250D01*
X115823000Y-75227000D01*
X115803000Y-75227000D01*
X115803000Y-74973000D01*
X115823000Y-74973000D01*
X115823000Y-74104750D01*
X115716250Y-73998000D01*
X115040065Y-73998000D01*
X114883124Y-74063007D01*
X114804537Y-74141594D01*
X114628616Y-74141594D01*
X115586805Y-73183406D01*
X115950000Y-73183406D01*
X116077589Y-73158027D01*
X116185754Y-73085754D01*
X116258027Y-72977589D01*
X116283406Y-72850000D01*
X116283406Y-72450000D01*
X116258027Y-72322411D01*
X116185754Y-72214246D01*
X116164433Y-72200000D01*
X116185754Y-72185754D01*
X116258027Y-72077589D01*
X116283406Y-71950000D01*
X116283406Y-71550000D01*
X116258027Y-71422411D01*
X116185754Y-71314246D01*
X116077589Y-71241973D01*
X115950000Y-71216594D01*
X115703200Y-71216594D01*
X115703200Y-70822824D01*
X115777589Y-70808027D01*
X115885754Y-70735754D01*
X115958027Y-70627589D01*
X115983406Y-70500000D01*
X115983406Y-70287168D01*
X116064048Y-70166479D01*
X116127000Y-69850000D01*
X116064048Y-69533521D01*
X115983406Y-69412832D01*
X115983406Y-69200000D01*
X115958027Y-69072411D01*
X115885754Y-68964246D01*
X115777589Y-68891973D01*
X115650000Y-68866594D01*
X115122143Y-68866594D01*
X116504659Y-67645339D01*
X118211414Y-68989766D01*
X118269911Y-69015401D01*
X118317347Y-69023000D01*
X117825012Y-69023000D01*
X117785754Y-68964246D01*
X117677589Y-68891973D01*
X117550000Y-68866594D01*
X116850000Y-68866594D01*
X116722411Y-68891973D01*
X116614246Y-68964246D01*
X116541973Y-69072411D01*
X116516594Y-69200000D01*
X116516594Y-69412832D01*
X116435952Y-69533521D01*
X116373000Y-69850000D01*
X116435952Y-70166479D01*
X116516594Y-70287168D01*
X116516594Y-70500000D01*
X116541973Y-70627589D01*
X116614246Y-70735754D01*
X116722411Y-70808027D01*
X116796800Y-70822824D01*
X116796800Y-71217231D01*
X116672411Y-71241973D01*
X116564246Y-71314246D01*
X116491973Y-71422411D01*
X116466594Y-71550000D01*
X116466594Y-71950000D01*
X116491973Y-72077589D01*
X116564246Y-72185754D01*
X116585567Y-72200000D01*
X116564246Y-72214246D01*
X116491973Y-72322411D01*
X116466594Y-72450000D01*
X116466594Y-72850000D01*
X116491973Y-72977589D01*
X116564246Y-73085754D01*
X116672411Y-73158027D01*
X116736959Y-73170866D01*
X116814895Y-73287505D01*
X117668983Y-74141594D01*
X117095463Y-74141594D01*
X117016876Y-74063007D01*
X116859935Y-73998000D01*
X116183750Y-73998000D01*
X116077000Y-74104750D01*
X116077000Y-74973000D01*
X116097000Y-74973000D01*
X116097000Y-75227000D01*
X116077000Y-75227000D01*
X116077000Y-76095250D01*
X116183750Y-76202000D01*
X116859935Y-76202000D01*
X117016876Y-76136993D01*
X117095463Y-76058406D01*
X117725000Y-76058406D01*
X117852589Y-76033027D01*
X117897229Y-76003200D01*
X118066594Y-76003200D01*
X118066594Y-76100000D01*
X118091973Y-76227589D01*
X118122642Y-76273489D01*
X118038007Y-76358124D01*
X117973000Y-76515065D01*
X117973000Y-76593250D01*
X118079750Y-76700000D01*
X118573000Y-76700000D01*
X118573000Y-76653000D01*
X118827000Y-76653000D01*
X118827000Y-76700000D01*
X119320250Y-76700000D01*
X119427000Y-76593250D01*
X119427000Y-76515065D01*
X119411201Y-76476923D01*
X119624171Y-76477109D01*
X119854703Y-76381855D01*
X120031235Y-76205631D01*
X120126891Y-75975265D01*
X120127109Y-75725829D01*
X120031855Y-75495297D01*
X119855631Y-75318765D01*
X119625265Y-75223109D01*
X119375829Y-75222891D01*
X119145297Y-75318145D01*
X119080686Y-75382643D01*
X119000000Y-75366594D01*
X118736804Y-75366594D01*
X118685105Y-75314895D01*
X118554298Y-75227492D01*
X118400000Y-75196800D01*
X118058406Y-75196800D01*
X118058406Y-74975000D01*
X118054835Y-74957048D01*
X118162505Y-74885105D01*
X118435106Y-74612505D01*
X118474611Y-74553380D01*
X118765218Y-74844495D01*
X119565068Y-75176621D01*
X120431132Y-75177377D01*
X120620586Y-75099096D01*
X124830509Y-75099096D01*
X124830509Y-75250064D01*
X125008124Y-75427679D01*
X125165064Y-75492685D01*
X125334936Y-75492685D01*
X125491876Y-75427678D01*
X125669491Y-75250064D01*
X125669491Y-75099096D01*
X125250000Y-74679605D01*
X124830509Y-75099096D01*
X120620586Y-75099096D01*
X121231560Y-74846647D01*
X121663897Y-74415064D01*
X124257315Y-74415064D01*
X124257315Y-74584936D01*
X124322321Y-74741876D01*
X124499936Y-74919491D01*
X124650904Y-74919491D01*
X125070395Y-74500000D01*
X124650904Y-74080509D01*
X124499936Y-74080509D01*
X124322322Y-74258124D01*
X124257315Y-74415064D01*
X121663897Y-74415064D01*
X121844495Y-74234782D01*
X122176621Y-73434932D01*
X122177377Y-72568868D01*
X121846647Y-71768440D01*
X121234782Y-71155505D01*
X120434932Y-70823379D01*
X119568868Y-70822623D01*
X118768440Y-71153353D01*
X118155505Y-71765218D01*
X117823379Y-72565068D01*
X117822864Y-73155054D01*
X117682942Y-73015132D01*
X117708027Y-72977589D01*
X117733406Y-72850000D01*
X117733406Y-72450000D01*
X117708027Y-72322411D01*
X117635754Y-72214246D01*
X117614433Y-72200000D01*
X117635754Y-72185754D01*
X117708027Y-72077589D01*
X117733406Y-71950000D01*
X117733406Y-71550000D01*
X117708027Y-71422411D01*
X117635754Y-71314246D01*
X117603200Y-71292494D01*
X117603200Y-70822824D01*
X117677589Y-70808027D01*
X117785754Y-70735754D01*
X117825012Y-70677000D01*
X122025212Y-70677000D01*
X124964329Y-73616117D01*
X124830509Y-73749936D01*
X124830509Y-73900904D01*
X125250000Y-74320395D01*
X125264143Y-74306253D01*
X125443748Y-74485858D01*
X125429605Y-74500000D01*
X125849096Y-74919491D01*
X126000064Y-74919491D01*
X126177678Y-74741876D01*
X126242685Y-74584936D01*
X126242685Y-74421475D01*
X126450362Y-74380165D01*
X126718660Y-74200894D01*
X126897931Y-73932596D01*
X126960883Y-73616117D01*
X126949568Y-73559233D01*
X127017767Y-73559233D01*
X127334246Y-73496281D01*
X127602544Y-73317010D01*
X127634159Y-73269694D01*
X129713743Y-73269694D01*
X129760896Y-73316848D01*
X129760896Y-73316847D01*
X129713743Y-73269694D01*
X127634159Y-73269694D01*
X127703525Y-73165880D01*
X129760896Y-73165880D01*
X129760896Y-73316847D01*
X129833860Y-73389811D01*
X129990800Y-73454818D01*
X130160671Y-73454818D01*
X130317612Y-73389810D01*
X130424516Y-73282907D01*
X130424516Y-73131939D01*
X130109677Y-72817100D01*
X129760896Y-73165880D01*
X127703525Y-73165880D01*
X127781815Y-73048712D01*
X127844767Y-72732233D01*
X127829714Y-72656559D01*
X127968932Y-72672626D01*
X128261030Y-72589329D01*
X129295182Y-72589329D01*
X129295182Y-72759200D01*
X129360189Y-72916140D01*
X129433153Y-72989104D01*
X129433152Y-72989104D01*
X129480306Y-73036257D01*
X129433153Y-72989104D01*
X129584120Y-72989104D01*
X129932900Y-72640323D01*
X129618061Y-72325484D01*
X129467093Y-72325484D01*
X129360190Y-72432388D01*
X129295182Y-72589329D01*
X128261030Y-72589329D01*
X128279248Y-72584134D01*
X128314217Y-72440522D01*
X127901650Y-72027955D01*
X127887508Y-72042098D01*
X127707902Y-71862492D01*
X127722045Y-71848350D01*
X127309478Y-71435783D01*
X127165866Y-71470752D01*
X127077374Y-71781068D01*
X127093441Y-71920286D01*
X127017767Y-71905233D01*
X125592553Y-71905233D01*
X122952543Y-69265223D01*
X122684245Y-69085952D01*
X122367766Y-69023000D01*
X121234258Y-69023000D01*
X121362044Y-68974922D01*
X126534582Y-68974922D01*
X126534582Y-69125889D01*
X126676842Y-69268148D01*
X126833782Y-69333156D01*
X127003654Y-69333156D01*
X127160594Y-69268149D01*
X127189363Y-69239380D01*
X127189363Y-69088412D01*
X126805227Y-68704277D01*
X126534582Y-68974922D01*
X121362044Y-68974922D01*
X122414722Y-68578865D01*
X122461409Y-68548167D01*
X123072836Y-67914261D01*
X125028445Y-67914261D01*
X125028445Y-68065228D01*
X125096550Y-68133333D01*
X125096550Y-68133334D01*
X125216666Y-68253450D01*
X125216667Y-68253450D01*
X125284772Y-68321555D01*
X125435739Y-68321555D01*
X125438837Y-68318457D01*
X125543478Y-68318457D01*
X125700419Y-68253450D01*
X125820535Y-68133333D01*
X126015920Y-67937949D01*
X126015920Y-67786982D01*
X125563018Y-67334080D01*
X125412051Y-67334080D01*
X125216667Y-67529465D01*
X125096550Y-67649581D01*
X125031543Y-67806522D01*
X125031543Y-67911163D01*
X125028445Y-67914261D01*
X123072836Y-67914261D01*
X123821409Y-67138167D01*
X123853361Y-67080184D01*
X124012219Y-66430939D01*
X124074975Y-66524860D01*
X124189845Y-66639730D01*
X124208090Y-66667036D01*
X124556694Y-67015640D01*
X124509651Y-67062682D01*
X124444644Y-67219623D01*
X124444644Y-67389494D01*
X124509651Y-67546435D01*
X124697873Y-67734656D01*
X124848840Y-67734656D01*
X125406217Y-67177279D01*
X125392075Y-67163137D01*
X125551704Y-67003508D01*
X125742623Y-67003508D01*
X125742623Y-67154475D01*
X126195525Y-67607377D01*
X126346492Y-67607377D01*
X126541874Y-67411994D01*
X126541876Y-67411993D01*
X126601934Y-67351934D01*
X126661993Y-67291876D01*
X126661994Y-67291874D01*
X126857377Y-67096492D01*
X126857377Y-66945525D01*
X126404475Y-66492623D01*
X126253508Y-66492623D01*
X126058126Y-66688006D01*
X126058124Y-66688007D01*
X125998066Y-66748066D01*
X125938007Y-66808124D01*
X125938006Y-66808126D01*
X125742623Y-67003508D01*
X125551704Y-67003508D01*
X125571680Y-66983532D01*
X125585822Y-66997674D01*
X126247674Y-66335822D01*
X126233532Y-66321680D01*
X126393161Y-66162051D01*
X126584080Y-66162051D01*
X126584080Y-66313018D01*
X127036982Y-66765920D01*
X127187949Y-66765920D01*
X127383333Y-66570535D01*
X127503450Y-66450419D01*
X127568457Y-66293478D01*
X127568457Y-66188837D01*
X127571555Y-66185739D01*
X127571555Y-66034772D01*
X127503450Y-65966667D01*
X127503450Y-65966666D01*
X127383334Y-65846550D01*
X127383333Y-65846550D01*
X127315228Y-65778445D01*
X127164261Y-65778445D01*
X127161163Y-65781543D01*
X127056522Y-65781543D01*
X126899581Y-65846550D01*
X126779465Y-65966667D01*
X126584080Y-66162051D01*
X126393161Y-66162051D01*
X126413137Y-66142075D01*
X126427279Y-66156217D01*
X126984656Y-65598840D01*
X126984656Y-65447873D01*
X126796435Y-65259651D01*
X126639494Y-65194644D01*
X126469623Y-65194644D01*
X126312682Y-65259651D01*
X126265640Y-65306694D01*
X126099746Y-65140800D01*
X127695182Y-65140800D01*
X127695182Y-65310671D01*
X127760190Y-65467612D01*
X127867093Y-65574516D01*
X128018061Y-65574516D01*
X128332900Y-65259677D01*
X127984120Y-64910896D01*
X127833153Y-64910896D01*
X127880306Y-64863743D01*
X127833152Y-64910896D01*
X127833153Y-64910896D01*
X127760189Y-64983860D01*
X127695182Y-65140800D01*
X126099746Y-65140800D01*
X126054410Y-65095464D01*
X126054410Y-64787446D01*
X126132113Y-64755340D01*
X126308645Y-64579116D01*
X126333232Y-64519904D01*
X126444369Y-64631235D01*
X126674735Y-64726891D01*
X126924171Y-64727109D01*
X127154703Y-64631855D01*
X127156254Y-64630306D01*
X128113743Y-64630306D01*
X128160896Y-64583153D01*
X128160896Y-64734120D01*
X128509677Y-65082900D01*
X128824516Y-64768061D01*
X128824516Y-64617093D01*
X128717612Y-64510190D01*
X128560671Y-64445182D01*
X128390800Y-64445182D01*
X128233860Y-64510189D01*
X128160896Y-64583153D01*
X128160896Y-64583152D01*
X128113743Y-64630306D01*
X127156254Y-64630306D01*
X127331235Y-64455631D01*
X127426891Y-64225265D01*
X127427109Y-63975829D01*
X127331855Y-63745297D01*
X127251321Y-63664622D01*
X127217594Y-63495063D01*
X127140579Y-63379803D01*
X127730388Y-63969612D01*
X127730388Y-63969612D01*
G37*
X127730388Y-63969612D02*
X127877027Y-64067594D01*
X128001890Y-64092430D01*
X128064246Y-64185754D01*
X128172411Y-64258027D01*
X128300000Y-64283406D01*
X128700000Y-64283406D01*
X128827589Y-64258027D01*
X128935754Y-64185754D01*
X128950000Y-64164433D01*
X128964246Y-64185754D01*
X129072411Y-64258027D01*
X129200000Y-64283406D01*
X129600000Y-64283406D01*
X129727589Y-64258027D01*
X129835754Y-64185754D01*
X129891716Y-64102000D01*
X130950700Y-64102000D01*
X131050313Y-64082186D01*
X131241214Y-64082186D01*
X131088765Y-64234369D01*
X130993109Y-64464735D01*
X130992891Y-64714171D01*
X131088145Y-64944703D01*
X131126116Y-64982740D01*
X130521947Y-65586909D01*
X129661971Y-65586909D01*
X129489308Y-65414246D01*
X129381143Y-65341973D01*
X129327000Y-65331203D01*
X129327000Y-65211511D01*
X129261992Y-65054570D01*
X129155089Y-64947666D01*
X129004121Y-64947666D01*
X128689282Y-65262505D01*
X128703424Y-65276648D01*
X128526648Y-65453424D01*
X128512505Y-65439282D01*
X128197666Y-65754121D01*
X128197666Y-65905089D01*
X128304570Y-66011992D01*
X128461511Y-66077000D01*
X128581203Y-66077000D01*
X128591973Y-66131143D01*
X128613804Y-66163816D01*
X128589422Y-66286396D01*
X128589422Y-67081353D01*
X128314861Y-67355915D01*
X128043306Y-67084360D01*
X128090349Y-67037318D01*
X128155356Y-66880377D01*
X128155356Y-66710506D01*
X128090349Y-66553565D01*
X127902127Y-66365344D01*
X127751160Y-66365344D01*
X127193783Y-66922721D01*
X127207926Y-66936864D01*
X127028321Y-67116469D01*
X127014178Y-67102326D01*
X126352326Y-67764178D01*
X126366469Y-67778321D01*
X126186864Y-67957926D01*
X126172721Y-67943783D01*
X125615344Y-68501160D01*
X125615344Y-68652127D01*
X125803565Y-68840349D01*
X125960506Y-68905356D01*
X126130377Y-68905356D01*
X126287318Y-68840349D01*
X126332350Y-68795317D01*
X126354977Y-68795317D01*
X126625622Y-68524672D01*
X126611480Y-68510530D01*
X126675472Y-68446537D01*
X126678301Y-68449366D01*
X126687915Y-68439753D01*
X127036518Y-68788356D01*
X127063824Y-68806601D01*
X128333534Y-70076312D01*
X128333534Y-70405586D01*
X128281538Y-70440328D01*
X128261396Y-70460470D01*
X128103803Y-70696327D01*
X128048462Y-70974537D01*
X128063578Y-71050527D01*
X127834368Y-71024074D01*
X127524052Y-71112566D01*
X127489083Y-71256178D01*
X127901650Y-71668745D01*
X127915792Y-71654602D01*
X128095398Y-71834208D01*
X128081255Y-71848350D01*
X128493822Y-72260917D01*
X128637434Y-72225948D01*
X128725926Y-71915632D01*
X128699473Y-71686422D01*
X128775463Y-71701538D01*
X129053673Y-71646197D01*
X129289530Y-71488604D01*
X129309672Y-71468462D01*
X129467265Y-71232606D01*
X129522605Y-70954395D01*
X129488651Y-70783701D01*
X129659346Y-70817655D01*
X129937556Y-70762314D01*
X130173413Y-70604721D01*
X130193555Y-70584579D01*
X130351148Y-70348723D01*
X130406488Y-70070512D01*
X130351148Y-69792302D01*
X130193555Y-69556445D01*
X129957698Y-69398852D01*
X129679488Y-69343512D01*
X129589476Y-69361417D01*
X128503612Y-68275554D01*
X128655157Y-68245410D01*
X128801796Y-68147428D01*
X129259613Y-67689612D01*
X129259615Y-67689609D01*
X129361034Y-67588191D01*
X129361036Y-67588188D01*
X129880000Y-67069224D01*
X130582031Y-67771256D01*
X130620769Y-67829231D01*
X130678747Y-67867971D01*
X131110776Y-68300000D01*
X130569297Y-68841479D01*
X130471315Y-68988118D01*
X130436909Y-69161091D01*
X130436909Y-71488029D01*
X130264246Y-71660692D01*
X130191973Y-71768857D01*
X130181203Y-71823000D01*
X130061511Y-71823000D01*
X129904570Y-71888008D01*
X129797666Y-71994911D01*
X129797666Y-72145879D01*
X130112505Y-72460718D01*
X130126648Y-72446576D01*
X130303424Y-72623352D01*
X130289282Y-72637495D01*
X130604121Y-72952334D01*
X130755089Y-72952334D01*
X130757367Y-72950056D01*
X129824007Y-74346927D01*
X128600177Y-75322970D01*
X125530572Y-77374014D01*
X123586362Y-77909628D01*
X120229962Y-78577258D01*
X114417367Y-77339228D01*
X113919778Y-77006750D01*
X117973000Y-77006750D01*
X117973000Y-77084935D01*
X118038007Y-77241876D01*
X118158124Y-77361993D01*
X118315064Y-77427000D01*
X118466250Y-77427000D01*
X118573000Y-77320250D01*
X118573000Y-76900000D01*
X118827000Y-76900000D01*
X118827000Y-77320250D01*
X118933750Y-77427000D01*
X119084936Y-77427000D01*
X119241876Y-77361993D01*
X119361993Y-77241876D01*
X119427000Y-77084935D01*
X119427000Y-77006750D01*
X119320250Y-76900000D01*
X118827000Y-76900000D01*
X118573000Y-76900000D01*
X118079750Y-76900000D01*
X117973000Y-77006750D01*
X113919778Y-77006750D01*
X113696385Y-76857484D01*
X113811993Y-76741876D01*
X113877000Y-76584935D01*
X113877000Y-76433750D01*
X113770250Y-76327000D01*
X113325000Y-76327000D01*
X113325000Y-76347000D01*
X113075000Y-76347000D01*
X113075000Y-76327000D01*
X113053000Y-76327000D01*
X113053000Y-76073000D01*
X113075000Y-76073000D01*
X113075000Y-76053000D01*
X113325000Y-76053000D01*
X113325000Y-76073000D01*
X113770250Y-76073000D01*
X113844691Y-75998560D01*
X113933124Y-76086993D01*
X114090065Y-76152000D01*
X114291250Y-76152000D01*
X114398000Y-76045250D01*
X114398000Y-75662500D01*
X114378000Y-75662500D01*
X114378000Y-75558406D01*
X114672000Y-75558406D01*
X114672000Y-75662500D01*
X114652000Y-75662500D01*
X114652000Y-76045250D01*
X114758750Y-76152000D01*
X114919354Y-76152000D01*
X115040065Y-76202000D01*
X115716250Y-76202000D01*
X115823000Y-76095250D01*
X115823000Y-75227000D01*
X115803000Y-75227000D01*
X115803000Y-74973000D01*
X115823000Y-74973000D01*
X115823000Y-74104750D01*
X115716250Y-73998000D01*
X115040065Y-73998000D01*
X114883124Y-74063007D01*
X114804537Y-74141594D01*
X114628616Y-74141594D01*
X115586805Y-73183406D01*
X115950000Y-73183406D01*
X116077589Y-73158027D01*
X116185754Y-73085754D01*
X116258027Y-72977589D01*
X116283406Y-72850000D01*
X116283406Y-72450000D01*
X116258027Y-72322411D01*
X116185754Y-72214246D01*
X116164433Y-72200000D01*
X116185754Y-72185754D01*
X116258027Y-72077589D01*
X116283406Y-71950000D01*
X116283406Y-71550000D01*
X116258027Y-71422411D01*
X116185754Y-71314246D01*
X116077589Y-71241973D01*
X115950000Y-71216594D01*
X115703200Y-71216594D01*
X115703200Y-70822824D01*
X115777589Y-70808027D01*
X115885754Y-70735754D01*
X115958027Y-70627589D01*
X115983406Y-70500000D01*
X115983406Y-70287168D01*
X116064048Y-70166479D01*
X116127000Y-69850000D01*
X116064048Y-69533521D01*
X115983406Y-69412832D01*
X115983406Y-69200000D01*
X115958027Y-69072411D01*
X115885754Y-68964246D01*
X115777589Y-68891973D01*
X115650000Y-68866594D01*
X115122143Y-68866594D01*
X116504659Y-67645339D01*
X118211414Y-68989766D01*
X118269911Y-69015401D01*
X118317347Y-69023000D01*
X117825012Y-69023000D01*
X117785754Y-68964246D01*
X117677589Y-68891973D01*
X117550000Y-68866594D01*
X116850000Y-68866594D01*
X116722411Y-68891973D01*
X116614246Y-68964246D01*
X116541973Y-69072411D01*
X116516594Y-69200000D01*
X116516594Y-69412832D01*
X116435952Y-69533521D01*
X116373000Y-69850000D01*
X116435952Y-70166479D01*
X116516594Y-70287168D01*
X116516594Y-70500000D01*
X116541973Y-70627589D01*
X116614246Y-70735754D01*
X116722411Y-70808027D01*
X116796800Y-70822824D01*
X116796800Y-71217231D01*
X116672411Y-71241973D01*
X116564246Y-71314246D01*
X116491973Y-71422411D01*
X116466594Y-71550000D01*
X116466594Y-71950000D01*
X116491973Y-72077589D01*
X116564246Y-72185754D01*
X116585567Y-72200000D01*
X116564246Y-72214246D01*
X116491973Y-72322411D01*
X116466594Y-72450000D01*
X116466594Y-72850000D01*
X116491973Y-72977589D01*
X116564246Y-73085754D01*
X116672411Y-73158027D01*
X116736959Y-73170866D01*
X116814895Y-73287505D01*
X117668983Y-74141594D01*
X117095463Y-74141594D01*
X117016876Y-74063007D01*
X116859935Y-73998000D01*
X116183750Y-73998000D01*
X116077000Y-74104750D01*
X116077000Y-74973000D01*
X116097000Y-74973000D01*
X116097000Y-75227000D01*
X116077000Y-75227000D01*
X116077000Y-76095250D01*
X116183750Y-76202000D01*
X116859935Y-76202000D01*
X117016876Y-76136993D01*
X117095463Y-76058406D01*
X117725000Y-76058406D01*
X117852589Y-76033027D01*
X117897229Y-76003200D01*
X118066594Y-76003200D01*
X118066594Y-76100000D01*
X118091973Y-76227589D01*
X118122642Y-76273489D01*
X118038007Y-76358124D01*
X117973000Y-76515065D01*
X117973000Y-76593250D01*
X118079750Y-76700000D01*
X118573000Y-76700000D01*
X118573000Y-76653000D01*
X118827000Y-76653000D01*
X118827000Y-76700000D01*
X119320250Y-76700000D01*
X119427000Y-76593250D01*
X119427000Y-76515065D01*
X119411201Y-76476923D01*
X119624171Y-76477109D01*
X119854703Y-76381855D01*
X120031235Y-76205631D01*
X120126891Y-75975265D01*
X120127109Y-75725829D01*
X120031855Y-75495297D01*
X119855631Y-75318765D01*
X119625265Y-75223109D01*
X119375829Y-75222891D01*
X119145297Y-75318145D01*
X119080686Y-75382643D01*
X119000000Y-75366594D01*
X118736804Y-75366594D01*
X118685105Y-75314895D01*
X118554298Y-75227492D01*
X118400000Y-75196800D01*
X118058406Y-75196800D01*
X118058406Y-74975000D01*
X118054835Y-74957048D01*
X118162505Y-74885105D01*
X118435106Y-74612505D01*
X118474611Y-74553380D01*
X118765218Y-74844495D01*
X119565068Y-75176621D01*
X120431132Y-75177377D01*
X120620586Y-75099096D01*
X124830509Y-75099096D01*
X124830509Y-75250064D01*
X125008124Y-75427679D01*
X125165064Y-75492685D01*
X125334936Y-75492685D01*
X125491876Y-75427678D01*
X125669491Y-75250064D01*
X125669491Y-75099096D01*
X125250000Y-74679605D01*
X124830509Y-75099096D01*
X120620586Y-75099096D01*
X121231560Y-74846647D01*
X121663897Y-74415064D01*
X124257315Y-74415064D01*
X124257315Y-74584936D01*
X124322321Y-74741876D01*
X124499936Y-74919491D01*
X124650904Y-74919491D01*
X125070395Y-74500000D01*
X124650904Y-74080509D01*
X124499936Y-74080509D01*
X124322322Y-74258124D01*
X124257315Y-74415064D01*
X121663897Y-74415064D01*
X121844495Y-74234782D01*
X122176621Y-73434932D01*
X122177377Y-72568868D01*
X121846647Y-71768440D01*
X121234782Y-71155505D01*
X120434932Y-70823379D01*
X119568868Y-70822623D01*
X118768440Y-71153353D01*
X118155505Y-71765218D01*
X117823379Y-72565068D01*
X117822864Y-73155054D01*
X117682942Y-73015132D01*
X117708027Y-72977589D01*
X117733406Y-72850000D01*
X117733406Y-72450000D01*
X117708027Y-72322411D01*
X117635754Y-72214246D01*
X117614433Y-72200000D01*
X117635754Y-72185754D01*
X117708027Y-72077589D01*
X117733406Y-71950000D01*
X117733406Y-71550000D01*
X117708027Y-71422411D01*
X117635754Y-71314246D01*
X117603200Y-71292494D01*
X117603200Y-70822824D01*
X117677589Y-70808027D01*
X117785754Y-70735754D01*
X117825012Y-70677000D01*
X122025212Y-70677000D01*
X124964329Y-73616117D01*
X124830509Y-73749936D01*
X124830509Y-73900904D01*
X125250000Y-74320395D01*
X125264143Y-74306253D01*
X125443748Y-74485858D01*
X125429605Y-74500000D01*
X125849096Y-74919491D01*
X126000064Y-74919491D01*
X126177678Y-74741876D01*
X126242685Y-74584936D01*
X126242685Y-74421475D01*
X126450362Y-74380165D01*
X126718660Y-74200894D01*
X126897931Y-73932596D01*
X126960883Y-73616117D01*
X126949568Y-73559233D01*
X127017767Y-73559233D01*
X127334246Y-73496281D01*
X127602544Y-73317010D01*
X127634159Y-73269694D01*
X129713743Y-73269694D01*
X129760896Y-73316848D01*
X129760896Y-73316847D01*
X129713743Y-73269694D01*
X127634159Y-73269694D01*
X127703525Y-73165880D01*
X129760896Y-73165880D01*
X129760896Y-73316847D01*
X129833860Y-73389811D01*
X129990800Y-73454818D01*
X130160671Y-73454818D01*
X130317612Y-73389810D01*
X130424516Y-73282907D01*
X130424516Y-73131939D01*
X130109677Y-72817100D01*
X129760896Y-73165880D01*
X127703525Y-73165880D01*
X127781815Y-73048712D01*
X127844767Y-72732233D01*
X127829714Y-72656559D01*
X127968932Y-72672626D01*
X128261030Y-72589329D01*
X129295182Y-72589329D01*
X129295182Y-72759200D01*
X129360189Y-72916140D01*
X129433153Y-72989104D01*
X129433152Y-72989104D01*
X129480306Y-73036257D01*
X129433153Y-72989104D01*
X129584120Y-72989104D01*
X129932900Y-72640323D01*
X129618061Y-72325484D01*
X129467093Y-72325484D01*
X129360190Y-72432388D01*
X129295182Y-72589329D01*
X128261030Y-72589329D01*
X128279248Y-72584134D01*
X128314217Y-72440522D01*
X127901650Y-72027955D01*
X127887508Y-72042098D01*
X127707902Y-71862492D01*
X127722045Y-71848350D01*
X127309478Y-71435783D01*
X127165866Y-71470752D01*
X127077374Y-71781068D01*
X127093441Y-71920286D01*
X127017767Y-71905233D01*
X125592553Y-71905233D01*
X122952543Y-69265223D01*
X122684245Y-69085952D01*
X122367766Y-69023000D01*
X121234258Y-69023000D01*
X121362044Y-68974922D01*
X126534582Y-68974922D01*
X126534582Y-69125889D01*
X126676842Y-69268148D01*
X126833782Y-69333156D01*
X127003654Y-69333156D01*
X127160594Y-69268149D01*
X127189363Y-69239380D01*
X127189363Y-69088412D01*
X126805227Y-68704277D01*
X126534582Y-68974922D01*
X121362044Y-68974922D01*
X122414722Y-68578865D01*
X122461409Y-68548167D01*
X123072836Y-67914261D01*
X125028445Y-67914261D01*
X125028445Y-68065228D01*
X125096550Y-68133333D01*
X125096550Y-68133334D01*
X125216666Y-68253450D01*
X125216667Y-68253450D01*
X125284772Y-68321555D01*
X125435739Y-68321555D01*
X125438837Y-68318457D01*
X125543478Y-68318457D01*
X125700419Y-68253450D01*
X125820535Y-68133333D01*
X126015920Y-67937949D01*
X126015920Y-67786982D01*
X125563018Y-67334080D01*
X125412051Y-67334080D01*
X125216667Y-67529465D01*
X125096550Y-67649581D01*
X125031543Y-67806522D01*
X125031543Y-67911163D01*
X125028445Y-67914261D01*
X123072836Y-67914261D01*
X123821409Y-67138167D01*
X123853361Y-67080184D01*
X124012219Y-66430939D01*
X124074975Y-66524860D01*
X124189845Y-66639730D01*
X124208090Y-66667036D01*
X124556694Y-67015640D01*
X124509651Y-67062682D01*
X124444644Y-67219623D01*
X124444644Y-67389494D01*
X124509651Y-67546435D01*
X124697873Y-67734656D01*
X124848840Y-67734656D01*
X125406217Y-67177279D01*
X125392075Y-67163137D01*
X125551704Y-67003508D01*
X125742623Y-67003508D01*
X125742623Y-67154475D01*
X126195525Y-67607377D01*
X126346492Y-67607377D01*
X126541874Y-67411994D01*
X126541876Y-67411993D01*
X126601934Y-67351934D01*
X126661993Y-67291876D01*
X126661994Y-67291874D01*
X126857377Y-67096492D01*
X126857377Y-66945525D01*
X126404475Y-66492623D01*
X126253508Y-66492623D01*
X126058126Y-66688006D01*
X126058124Y-66688007D01*
X125998066Y-66748066D01*
X125938007Y-66808124D01*
X125938006Y-66808126D01*
X125742623Y-67003508D01*
X125551704Y-67003508D01*
X125571680Y-66983532D01*
X125585822Y-66997674D01*
X126247674Y-66335822D01*
X126233532Y-66321680D01*
X126393161Y-66162051D01*
X126584080Y-66162051D01*
X126584080Y-66313018D01*
X127036982Y-66765920D01*
X127187949Y-66765920D01*
X127383333Y-66570535D01*
X127503450Y-66450419D01*
X127568457Y-66293478D01*
X127568457Y-66188837D01*
X127571555Y-66185739D01*
X127571555Y-66034772D01*
X127503450Y-65966667D01*
X127503450Y-65966666D01*
X127383334Y-65846550D01*
X127383333Y-65846550D01*
X127315228Y-65778445D01*
X127164261Y-65778445D01*
X127161163Y-65781543D01*
X127056522Y-65781543D01*
X126899581Y-65846550D01*
X126779465Y-65966667D01*
X126584080Y-66162051D01*
X126393161Y-66162051D01*
X126413137Y-66142075D01*
X126427279Y-66156217D01*
X126984656Y-65598840D01*
X126984656Y-65447873D01*
X126796435Y-65259651D01*
X126639494Y-65194644D01*
X126469623Y-65194644D01*
X126312682Y-65259651D01*
X126265640Y-65306694D01*
X126099746Y-65140800D01*
X127695182Y-65140800D01*
X127695182Y-65310671D01*
X127760190Y-65467612D01*
X127867093Y-65574516D01*
X128018061Y-65574516D01*
X128332900Y-65259677D01*
X127984120Y-64910896D01*
X127833153Y-64910896D01*
X127880306Y-64863743D01*
X127833152Y-64910896D01*
X127833153Y-64910896D01*
X127760189Y-64983860D01*
X127695182Y-65140800D01*
X126099746Y-65140800D01*
X126054410Y-65095464D01*
X126054410Y-64787446D01*
X126132113Y-64755340D01*
X126308645Y-64579116D01*
X126333232Y-64519904D01*
X126444369Y-64631235D01*
X126674735Y-64726891D01*
X126924171Y-64727109D01*
X127154703Y-64631855D01*
X127156254Y-64630306D01*
X128113743Y-64630306D01*
X128160896Y-64583153D01*
X128160896Y-64734120D01*
X128509677Y-65082900D01*
X128824516Y-64768061D01*
X128824516Y-64617093D01*
X128717612Y-64510190D01*
X128560671Y-64445182D01*
X128390800Y-64445182D01*
X128233860Y-64510189D01*
X128160896Y-64583153D01*
X128160896Y-64583152D01*
X128113743Y-64630306D01*
X127156254Y-64630306D01*
X127331235Y-64455631D01*
X127426891Y-64225265D01*
X127427109Y-63975829D01*
X127331855Y-63745297D01*
X127251321Y-63664622D01*
X127217594Y-63495063D01*
X127140579Y-63379803D01*
X127730388Y-63969612D01*
G36*
X114896800Y-71400000D02*
X114924942Y-71541479D01*
X114927492Y-71554298D01*
X115014895Y-71685105D01*
X115016594Y-71686804D01*
X115016594Y-71950000D01*
X115041973Y-72077589D01*
X115114246Y-72185754D01*
X115135567Y-72200000D01*
X115114246Y-72214246D01*
X115041973Y-72322411D01*
X115016594Y-72450000D01*
X115016594Y-72613195D01*
X113664895Y-73964895D01*
X113577492Y-74095702D01*
X113546800Y-74250000D01*
X113546800Y-74485849D01*
X113450000Y-74466594D01*
X112950000Y-74466594D01*
X112822411Y-74491973D01*
X112714246Y-74564246D01*
X112658284Y-74648000D01*
X112635209Y-74648000D01*
X112575265Y-74623109D01*
X112325829Y-74622891D01*
X112095297Y-74718145D01*
X111918765Y-74894369D01*
X111823109Y-75124735D01*
X111822891Y-75374171D01*
X111840788Y-75417485D01*
X109812539Y-73802980D01*
X109709130Y-73648218D01*
X110893578Y-72601927D01*
X112214246Y-73922595D01*
X112322411Y-73994868D01*
X112450000Y-74020247D01*
X112577589Y-73994868D01*
X112685754Y-73922595D01*
X114122595Y-72485754D01*
X114194868Y-72377589D01*
X114220247Y-72250000D01*
X114194868Y-72122411D01*
X114122595Y-72014246D01*
X113988952Y-71880603D01*
X114896800Y-70972755D01*
X114896800Y-71400000D01*
X114896800Y-71400000D01*
G37*
X114896800Y-71400000D02*
X114924942Y-71541479D01*
X114927492Y-71554298D01*
X115014895Y-71685105D01*
X115016594Y-71686804D01*
X115016594Y-71950000D01*
X115041973Y-72077589D01*
X115114246Y-72185754D01*
X115135567Y-72200000D01*
X115114246Y-72214246D01*
X115041973Y-72322411D01*
X115016594Y-72450000D01*
X115016594Y-72613195D01*
X113664895Y-73964895D01*
X113577492Y-74095702D01*
X113546800Y-74250000D01*
X113546800Y-74485849D01*
X113450000Y-74466594D01*
X112950000Y-74466594D01*
X112822411Y-74491973D01*
X112714246Y-74564246D01*
X112658284Y-74648000D01*
X112635209Y-74648000D01*
X112575265Y-74623109D01*
X112325829Y-74622891D01*
X112095297Y-74718145D01*
X111918765Y-74894369D01*
X111823109Y-75124735D01*
X111822891Y-75374171D01*
X111840788Y-75417485D01*
X109812539Y-73802980D01*
X109709130Y-73648218D01*
X110893578Y-72601927D01*
X112214246Y-73922595D01*
X112322411Y-73994868D01*
X112450000Y-74020247D01*
X112577589Y-73994868D01*
X112685754Y-73922595D01*
X114122595Y-72485754D01*
X114194868Y-72377589D01*
X114220247Y-72250000D01*
X114194868Y-72122411D01*
X114122595Y-72014246D01*
X113988952Y-71880603D01*
X114896800Y-70972755D01*
X114896800Y-71400000D01*
G36*
X133613231Y-64950888D02*
X133569651Y-65268202D01*
X132641067Y-69936510D01*
X131781023Y-71418046D01*
X131587685Y-71707397D01*
X131585845Y-71698147D01*
X131513572Y-71589982D01*
X131340909Y-71417319D01*
X131340909Y-69348315D01*
X131762213Y-68927011D01*
X131874171Y-68927109D01*
X132104703Y-68831855D01*
X132281235Y-68655631D01*
X132376891Y-68425265D01*
X132377109Y-68175829D01*
X132281855Y-67945297D01*
X132105631Y-67768765D01*
X131875265Y-67673109D01*
X131762234Y-67673010D01*
X131269615Y-67180391D01*
X131269613Y-67180388D01*
X130580133Y-66490909D01*
X130709171Y-66490909D01*
X130882144Y-66456503D01*
X131028783Y-66358521D01*
X133068912Y-64318392D01*
X133166894Y-64171753D01*
X133186219Y-64074600D01*
X133275669Y-64056807D01*
X133383834Y-63984534D01*
X133412483Y-63941658D01*
X133613231Y-64950888D01*
X133613231Y-64950888D01*
G37*
X133613231Y-64950888D02*
X133569651Y-65268202D01*
X132641067Y-69936510D01*
X131781023Y-71418046D01*
X131587685Y-71707397D01*
X131585845Y-71698147D01*
X131513572Y-71589982D01*
X131340909Y-71417319D01*
X131340909Y-69348315D01*
X131762213Y-68927011D01*
X131874171Y-68927109D01*
X132104703Y-68831855D01*
X132281235Y-68655631D01*
X132376891Y-68425265D01*
X132377109Y-68175829D01*
X132281855Y-67945297D01*
X132105631Y-67768765D01*
X131875265Y-67673109D01*
X131762234Y-67673010D01*
X131269615Y-67180391D01*
X131269613Y-67180388D01*
X130580133Y-66490909D01*
X130709171Y-66490909D01*
X130882144Y-66456503D01*
X131028783Y-66358521D01*
X133068912Y-64318392D01*
X133166894Y-64171753D01*
X133186219Y-64074600D01*
X133275669Y-64056807D01*
X133383834Y-63984534D01*
X133412483Y-63941658D01*
X133613231Y-64950888D01*
G36*
X129605875Y-55349016D02*
X129780170Y-55587465D01*
X132586011Y-59786704D01*
X133149198Y-62618036D01*
X133148080Y-62617814D01*
X132350520Y-62617814D01*
X132222931Y-62643193D01*
X132114766Y-62715466D01*
X132042493Y-62823631D01*
X132017114Y-62951220D01*
X132017114Y-63748780D01*
X132042493Y-63876369D01*
X132114766Y-63984534D01*
X132120494Y-63988362D01*
X132012828Y-64096028D01*
X131975631Y-64058765D01*
X131851364Y-64007165D01*
X131885234Y-63984534D01*
X131957507Y-63876369D01*
X131982886Y-63748780D01*
X131982886Y-62951220D01*
X131957507Y-62823631D01*
X131885234Y-62715466D01*
X131777069Y-62643193D01*
X131649480Y-62617814D01*
X130851920Y-62617814D01*
X130724331Y-62643193D01*
X130616166Y-62715466D01*
X130543893Y-62823631D01*
X130518514Y-62951220D01*
X130518514Y-63198000D01*
X129891716Y-63198000D01*
X129835754Y-63114246D01*
X129727589Y-63041973D01*
X129600000Y-63016594D01*
X129200000Y-63016594D01*
X129072411Y-63041973D01*
X128964246Y-63114246D01*
X128950000Y-63135567D01*
X128935754Y-63114246D01*
X128827589Y-63041973D01*
X128700000Y-63016594D01*
X128300000Y-63016594D01*
X128172411Y-63041973D01*
X128117732Y-63078508D01*
X126584386Y-61545162D01*
X126437747Y-61447180D01*
X126264774Y-61412774D01*
X124776262Y-61412774D01*
X124343876Y-60980388D01*
X124197237Y-60882406D01*
X124037320Y-60850597D01*
X123955631Y-60768765D01*
X123725265Y-60673109D01*
X123475829Y-60672891D01*
X123245297Y-60768145D01*
X123105516Y-60907682D01*
X123105631Y-60775838D01*
X123010377Y-60545306D01*
X122834153Y-60368774D01*
X122712969Y-60318454D01*
X122136514Y-59741999D01*
X121949321Y-59616922D01*
X121728513Y-59572999D01*
X121728508Y-59573000D01*
X121441825Y-59573000D01*
X121649819Y-59486846D01*
X121942980Y-59122585D01*
X120000000Y-57179605D01*
X118057020Y-59122585D01*
X118350181Y-59486846D01*
X118560131Y-59573000D01*
X117214609Y-59573000D01*
X116914317Y-58898432D01*
X116929401Y-58822599D01*
X116929401Y-57627401D01*
X116894995Y-57454428D01*
X116797013Y-57307789D01*
X116589224Y-57100000D01*
X116894612Y-56794612D01*
X116992594Y-56647973D01*
X117027000Y-56475000D01*
X117027000Y-56427441D01*
X117071095Y-56427441D01*
X117074936Y-57591867D01*
X117513154Y-58649819D01*
X117877415Y-58942980D01*
X119820395Y-57000000D01*
X120179605Y-57000000D01*
X122122585Y-58942980D01*
X122486846Y-58649819D01*
X122928905Y-57572559D01*
X122925064Y-56408133D01*
X122486846Y-55350181D01*
X122122585Y-55057020D01*
X120179605Y-57000000D01*
X119820395Y-57000000D01*
X117877415Y-55057020D01*
X117513154Y-55350181D01*
X117071095Y-56427441D01*
X117027000Y-56427441D01*
X117027000Y-56249025D01*
X117058027Y-56202589D01*
X117083406Y-56075000D01*
X117083406Y-55575000D01*
X117058027Y-55447411D01*
X116985754Y-55339246D01*
X116922327Y-55296866D01*
X116894612Y-55255388D01*
X116747973Y-55157406D01*
X116575000Y-55123000D01*
X116402027Y-55157406D01*
X116255388Y-55255388D01*
X116250000Y-55263452D01*
X116244612Y-55255388D01*
X116097973Y-55157406D01*
X115925000Y-55123000D01*
X115752027Y-55157406D01*
X115605388Y-55255388D01*
X115600000Y-55263452D01*
X115594612Y-55255388D01*
X115447973Y-55157406D01*
X115275000Y-55123000D01*
X115102027Y-55157406D01*
X115027640Y-55207110D01*
X114884935Y-55148000D01*
X114819250Y-55148000D01*
X114712500Y-55254750D01*
X114712500Y-55650401D01*
X114537500Y-55650401D01*
X114537500Y-55254750D01*
X114430750Y-55148000D01*
X114365065Y-55148000D01*
X114352000Y-55153412D01*
X114352000Y-54877415D01*
X118057020Y-54877415D01*
X120000000Y-56820395D01*
X121768741Y-55051654D01*
X122853272Y-55051654D01*
X123011282Y-55336789D01*
X123266380Y-55539752D01*
X123394397Y-55592779D01*
X123522013Y-55514620D01*
X123522013Y-54924038D01*
X122931431Y-54924038D01*
X122853272Y-55051654D01*
X121768741Y-55051654D01*
X121942980Y-54877415D01*
X121649819Y-54513154D01*
X120572559Y-54071095D01*
X119408133Y-54074936D01*
X118350181Y-54513154D01*
X118057020Y-54877415D01*
X114352000Y-54877415D01*
X114352000Y-54512224D01*
X114387224Y-54477000D01*
X114625000Y-54477000D01*
X114797973Y-54442594D01*
X114872360Y-54392890D01*
X115015065Y-54452000D01*
X115080750Y-54452000D01*
X115187500Y-54345250D01*
X115187500Y-53900000D01*
X115133406Y-53900000D01*
X115133406Y-53655818D01*
X115139224Y-53650000D01*
X115187500Y-53650000D01*
X115187500Y-53629401D01*
X115362500Y-53629401D01*
X115362500Y-53650000D01*
X115416594Y-53650000D01*
X115416594Y-53900000D01*
X115362500Y-53900000D01*
X115362500Y-54345250D01*
X115469250Y-54452000D01*
X115534935Y-54452000D01*
X115677640Y-54392890D01*
X115752027Y-54442594D01*
X115925000Y-54477000D01*
X116097973Y-54442594D01*
X116172360Y-54392890D01*
X116315065Y-54452000D01*
X116380750Y-54452000D01*
X116487500Y-54345250D01*
X116487500Y-53900000D01*
X116662500Y-53900000D01*
X116662500Y-54345250D01*
X116769250Y-54452000D01*
X116834935Y-54452000D01*
X116991876Y-54386993D01*
X117111993Y-54266876D01*
X117177000Y-54109936D01*
X117177000Y-54006750D01*
X117070250Y-53900000D01*
X116662500Y-53900000D01*
X116487500Y-53900000D01*
X116433406Y-53900000D01*
X116433406Y-53650000D01*
X116487500Y-53650000D01*
X116487500Y-53204750D01*
X116662500Y-53204750D01*
X116662500Y-53650000D01*
X117070250Y-53650000D01*
X117177000Y-53543250D01*
X117177000Y-53440064D01*
X117111993Y-53283124D01*
X116991876Y-53163007D01*
X116834935Y-53098000D01*
X116769250Y-53098000D01*
X116662500Y-53204750D01*
X116487500Y-53204750D01*
X116410987Y-53128237D01*
X116478667Y-53060558D01*
X121133480Y-53060558D01*
X121133408Y-53143463D01*
X121242704Y-53407979D01*
X121444906Y-53610534D01*
X121709231Y-53720291D01*
X121995438Y-53720541D01*
X122056603Y-53695268D01*
X122031683Y-53755282D01*
X122031433Y-54041489D01*
X122140729Y-54306005D01*
X122342931Y-54508560D01*
X122607256Y-54618317D01*
X122893463Y-54618567D01*
X122898606Y-54616442D01*
X122931431Y-54670038D01*
X123342405Y-54670038D01*
X123455264Y-54782897D01*
X123634872Y-54603289D01*
X123522013Y-54490430D01*
X123522013Y-54342223D01*
X123723117Y-54543327D01*
X123663154Y-54603289D01*
X123842762Y-54782897D01*
X123902725Y-54722935D01*
X124103828Y-54924038D01*
X123955621Y-54924038D01*
X123842762Y-54811179D01*
X123663154Y-54990787D01*
X123776013Y-55103646D01*
X123776013Y-55306910D01*
X123583078Y-55499509D01*
X123458014Y-55800696D01*
X123457729Y-56126817D01*
X123582267Y-56428222D01*
X123812668Y-56659025D01*
X124113855Y-56784089D01*
X124439976Y-56784374D01*
X124741381Y-56659836D01*
X124972184Y-56429435D01*
X125097248Y-56128248D01*
X125097432Y-55917643D01*
X126276337Y-57096548D01*
X126223109Y-57224735D01*
X126222891Y-57474171D01*
X126318145Y-57704703D01*
X126494369Y-57881235D01*
X126724735Y-57976891D01*
X126974171Y-57977109D01*
X127204703Y-57881855D01*
X127381235Y-57705631D01*
X127476891Y-57475265D01*
X127477109Y-57225829D01*
X127381855Y-56995297D01*
X127205631Y-56818765D01*
X127091645Y-56771434D01*
X126717456Y-56397245D01*
X126754703Y-56381855D01*
X126931235Y-56205631D01*
X127026891Y-55975265D01*
X127027068Y-55772303D01*
X127072507Y-55704299D01*
X127103199Y-55550001D01*
X127103199Y-54158451D01*
X127072507Y-54004153D01*
X127034987Y-53948000D01*
X126985105Y-53873346D01*
X126154921Y-53043163D01*
X129605875Y-55349016D01*
X129605875Y-55349016D01*
G37*
X129605875Y-55349016D02*
X129780170Y-55587465D01*
X132586011Y-59786704D01*
X133149198Y-62618036D01*
X133148080Y-62617814D01*
X132350520Y-62617814D01*
X132222931Y-62643193D01*
X132114766Y-62715466D01*
X132042493Y-62823631D01*
X132017114Y-62951220D01*
X132017114Y-63748780D01*
X132042493Y-63876369D01*
X132114766Y-63984534D01*
X132120494Y-63988362D01*
X132012828Y-64096028D01*
X131975631Y-64058765D01*
X131851364Y-64007165D01*
X131885234Y-63984534D01*
X131957507Y-63876369D01*
X131982886Y-63748780D01*
X131982886Y-62951220D01*
X131957507Y-62823631D01*
X131885234Y-62715466D01*
X131777069Y-62643193D01*
X131649480Y-62617814D01*
X130851920Y-62617814D01*
X130724331Y-62643193D01*
X130616166Y-62715466D01*
X130543893Y-62823631D01*
X130518514Y-62951220D01*
X130518514Y-63198000D01*
X129891716Y-63198000D01*
X129835754Y-63114246D01*
X129727589Y-63041973D01*
X129600000Y-63016594D01*
X129200000Y-63016594D01*
X129072411Y-63041973D01*
X128964246Y-63114246D01*
X128950000Y-63135567D01*
X128935754Y-63114246D01*
X128827589Y-63041973D01*
X128700000Y-63016594D01*
X128300000Y-63016594D01*
X128172411Y-63041973D01*
X128117732Y-63078508D01*
X126584386Y-61545162D01*
X126437747Y-61447180D01*
X126264774Y-61412774D01*
X124776262Y-61412774D01*
X124343876Y-60980388D01*
X124197237Y-60882406D01*
X124037320Y-60850597D01*
X123955631Y-60768765D01*
X123725265Y-60673109D01*
X123475829Y-60672891D01*
X123245297Y-60768145D01*
X123105516Y-60907682D01*
X123105631Y-60775838D01*
X123010377Y-60545306D01*
X122834153Y-60368774D01*
X122712969Y-60318454D01*
X122136514Y-59741999D01*
X121949321Y-59616922D01*
X121728513Y-59572999D01*
X121728508Y-59573000D01*
X121441825Y-59573000D01*
X121649819Y-59486846D01*
X121942980Y-59122585D01*
X120000000Y-57179605D01*
X118057020Y-59122585D01*
X118350181Y-59486846D01*
X118560131Y-59573000D01*
X117214609Y-59573000D01*
X116914317Y-58898432D01*
X116929401Y-58822599D01*
X116929401Y-57627401D01*
X116894995Y-57454428D01*
X116797013Y-57307789D01*
X116589224Y-57100000D01*
X116894612Y-56794612D01*
X116992594Y-56647973D01*
X117027000Y-56475000D01*
X117027000Y-56427441D01*
X117071095Y-56427441D01*
X117074936Y-57591867D01*
X117513154Y-58649819D01*
X117877415Y-58942980D01*
X119820395Y-57000000D01*
X120179605Y-57000000D01*
X122122585Y-58942980D01*
X122486846Y-58649819D01*
X122928905Y-57572559D01*
X122925064Y-56408133D01*
X122486846Y-55350181D01*
X122122585Y-55057020D01*
X120179605Y-57000000D01*
X119820395Y-57000000D01*
X117877415Y-55057020D01*
X117513154Y-55350181D01*
X117071095Y-56427441D01*
X117027000Y-56427441D01*
X117027000Y-56249025D01*
X117058027Y-56202589D01*
X117083406Y-56075000D01*
X117083406Y-55575000D01*
X117058027Y-55447411D01*
X116985754Y-55339246D01*
X116922327Y-55296866D01*
X116894612Y-55255388D01*
X116747973Y-55157406D01*
X116575000Y-55123000D01*
X116402027Y-55157406D01*
X116255388Y-55255388D01*
X116250000Y-55263452D01*
X116244612Y-55255388D01*
X116097973Y-55157406D01*
X115925000Y-55123000D01*
X115752027Y-55157406D01*
X115605388Y-55255388D01*
X115600000Y-55263452D01*
X115594612Y-55255388D01*
X115447973Y-55157406D01*
X115275000Y-55123000D01*
X115102027Y-55157406D01*
X115027640Y-55207110D01*
X114884935Y-55148000D01*
X114819250Y-55148000D01*
X114712500Y-55254750D01*
X114712500Y-55650401D01*
X114537500Y-55650401D01*
X114537500Y-55254750D01*
X114430750Y-55148000D01*
X114365065Y-55148000D01*
X114352000Y-55153412D01*
X114352000Y-54877415D01*
X118057020Y-54877415D01*
X120000000Y-56820395D01*
X121768741Y-55051654D01*
X122853272Y-55051654D01*
X123011282Y-55336789D01*
X123266380Y-55539752D01*
X123394397Y-55592779D01*
X123522013Y-55514620D01*
X123522013Y-54924038D01*
X122931431Y-54924038D01*
X122853272Y-55051654D01*
X121768741Y-55051654D01*
X121942980Y-54877415D01*
X121649819Y-54513154D01*
X120572559Y-54071095D01*
X119408133Y-54074936D01*
X118350181Y-54513154D01*
X118057020Y-54877415D01*
X114352000Y-54877415D01*
X114352000Y-54512224D01*
X114387224Y-54477000D01*
X114625000Y-54477000D01*
X114797973Y-54442594D01*
X114872360Y-54392890D01*
X115015065Y-54452000D01*
X115080750Y-54452000D01*
X115187500Y-54345250D01*
X115187500Y-53900000D01*
X115133406Y-53900000D01*
X115133406Y-53655818D01*
X115139224Y-53650000D01*
X115187500Y-53650000D01*
X115187500Y-53629401D01*
X115362500Y-53629401D01*
X115362500Y-53650000D01*
X115416594Y-53650000D01*
X115416594Y-53900000D01*
X115362500Y-53900000D01*
X115362500Y-54345250D01*
X115469250Y-54452000D01*
X115534935Y-54452000D01*
X115677640Y-54392890D01*
X115752027Y-54442594D01*
X115925000Y-54477000D01*
X116097973Y-54442594D01*
X116172360Y-54392890D01*
X116315065Y-54452000D01*
X116380750Y-54452000D01*
X116487500Y-54345250D01*
X116487500Y-53900000D01*
X116662500Y-53900000D01*
X116662500Y-54345250D01*
X116769250Y-54452000D01*
X116834935Y-54452000D01*
X116991876Y-54386993D01*
X117111993Y-54266876D01*
X117177000Y-54109936D01*
X117177000Y-54006750D01*
X117070250Y-53900000D01*
X116662500Y-53900000D01*
X116487500Y-53900000D01*
X116433406Y-53900000D01*
X116433406Y-53650000D01*
X116487500Y-53650000D01*
X116487500Y-53204750D01*
X116662500Y-53204750D01*
X116662500Y-53650000D01*
X117070250Y-53650000D01*
X117177000Y-53543250D01*
X117177000Y-53440064D01*
X117111993Y-53283124D01*
X116991876Y-53163007D01*
X116834935Y-53098000D01*
X116769250Y-53098000D01*
X116662500Y-53204750D01*
X116487500Y-53204750D01*
X116410987Y-53128237D01*
X116478667Y-53060558D01*
X121133480Y-53060558D01*
X121133408Y-53143463D01*
X121242704Y-53407979D01*
X121444906Y-53610534D01*
X121709231Y-53720291D01*
X121995438Y-53720541D01*
X122056603Y-53695268D01*
X122031683Y-53755282D01*
X122031433Y-54041489D01*
X122140729Y-54306005D01*
X122342931Y-54508560D01*
X122607256Y-54618317D01*
X122893463Y-54618567D01*
X122898606Y-54616442D01*
X122931431Y-54670038D01*
X123342405Y-54670038D01*
X123455264Y-54782897D01*
X123634872Y-54603289D01*
X123522013Y-54490430D01*
X123522013Y-54342223D01*
X123723117Y-54543327D01*
X123663154Y-54603289D01*
X123842762Y-54782897D01*
X123902725Y-54722935D01*
X124103828Y-54924038D01*
X123955621Y-54924038D01*
X123842762Y-54811179D01*
X123663154Y-54990787D01*
X123776013Y-55103646D01*
X123776013Y-55306910D01*
X123583078Y-55499509D01*
X123458014Y-55800696D01*
X123457729Y-56126817D01*
X123582267Y-56428222D01*
X123812668Y-56659025D01*
X124113855Y-56784089D01*
X124439976Y-56784374D01*
X124741381Y-56659836D01*
X124972184Y-56429435D01*
X125097248Y-56128248D01*
X125097432Y-55917643D01*
X126276337Y-57096548D01*
X126223109Y-57224735D01*
X126222891Y-57474171D01*
X126318145Y-57704703D01*
X126494369Y-57881235D01*
X126724735Y-57976891D01*
X126974171Y-57977109D01*
X127204703Y-57881855D01*
X127381235Y-57705631D01*
X127476891Y-57475265D01*
X127477109Y-57225829D01*
X127381855Y-56995297D01*
X127205631Y-56818765D01*
X127091645Y-56771434D01*
X126717456Y-56397245D01*
X126754703Y-56381855D01*
X126931235Y-56205631D01*
X127026891Y-55975265D01*
X127027068Y-55772303D01*
X127072507Y-55704299D01*
X127103199Y-55550001D01*
X127103199Y-54158451D01*
X127072507Y-54004153D01*
X127034987Y-53948000D01*
X126985105Y-53873346D01*
X126154921Y-53043163D01*
X129605875Y-55349016D01*
G36*
X112541973Y-53972411D02*
X112516594Y-54100000D01*
X112516594Y-54700000D01*
X112541973Y-54827589D01*
X112572642Y-54873489D01*
X112488007Y-54958124D01*
X112423000Y-55115065D01*
X112423000Y-55266250D01*
X112529750Y-55373000D01*
X112975000Y-55373000D01*
X112975000Y-55353000D01*
X113225000Y-55353000D01*
X113225000Y-55373000D01*
X113247000Y-55373000D01*
X113247000Y-55627000D01*
X113225000Y-55627000D01*
X113225000Y-56120250D01*
X113331750Y-56227000D01*
X113434936Y-56227000D01*
X113448000Y-56221589D01*
X113448000Y-56549122D01*
X113413831Y-56534969D01*
X112820524Y-56227000D01*
X112868250Y-56227000D01*
X112975000Y-56120250D01*
X112975000Y-55627000D01*
X112529750Y-55627000D01*
X112423000Y-55733750D01*
X112423000Y-55884935D01*
X112488007Y-56041876D01*
X112514048Y-56067917D01*
X110715447Y-55134315D01*
X112612637Y-53866654D01*
X112541973Y-53972411D01*
X112541973Y-53972411D01*
G37*
X112541973Y-53972411D02*
X112516594Y-54100000D01*
X112516594Y-54700000D01*
X112541973Y-54827589D01*
X112572642Y-54873489D01*
X112488007Y-54958124D01*
X112423000Y-55115065D01*
X112423000Y-55266250D01*
X112529750Y-55373000D01*
X112975000Y-55373000D01*
X112975000Y-55353000D01*
X113225000Y-55353000D01*
X113225000Y-55373000D01*
X113247000Y-55373000D01*
X113247000Y-55627000D01*
X113225000Y-55627000D01*
X113225000Y-56120250D01*
X113331750Y-56227000D01*
X113434936Y-56227000D01*
X113448000Y-56221589D01*
X113448000Y-56549122D01*
X113413831Y-56534969D01*
X112820524Y-56227000D01*
X112868250Y-56227000D01*
X112975000Y-56120250D01*
X112975000Y-55627000D01*
X112529750Y-55627000D01*
X112423000Y-55733750D01*
X112423000Y-55884935D01*
X112488007Y-56041876D01*
X112514048Y-56067917D01*
X110715447Y-55134315D01*
X112612637Y-53866654D01*
X112541973Y-53972411D01*
G36*
X120583059Y-51492978D02*
X120582777Y-51816545D01*
X120707508Y-52118418D01*
X120745582Y-52156558D01*
X116291442Y-52156558D01*
X116161147Y-52182475D01*
X116118468Y-52190964D01*
X115971829Y-52288946D01*
X115535375Y-52725401D01*
X114972599Y-52725401D01*
X114799626Y-52759807D01*
X114652987Y-52857789D01*
X114305388Y-53205388D01*
X114277673Y-53246866D01*
X114214246Y-53289246D01*
X114141973Y-53397411D01*
X114116594Y-53525000D01*
X114116594Y-53589590D01*
X114027027Y-53607406D01*
X113880388Y-53705388D01*
X113640138Y-53945638D01*
X113585754Y-53864246D01*
X113477589Y-53791973D01*
X113350000Y-53766594D01*
X112850000Y-53766594D01*
X112725250Y-53791408D01*
X114786704Y-52413989D01*
X119673315Y-51441982D01*
X120253410Y-51427407D01*
X120583059Y-51492978D01*
X120583059Y-51492978D01*
G37*
X120583059Y-51492978D02*
X120582777Y-51816545D01*
X120707508Y-52118418D01*
X120745582Y-52156558D01*
X116291442Y-52156558D01*
X116161147Y-52182475D01*
X116118468Y-52190964D01*
X115971829Y-52288946D01*
X115535375Y-52725401D01*
X114972599Y-52725401D01*
X114799626Y-52759807D01*
X114652987Y-52857789D01*
X114305388Y-53205388D01*
X114277673Y-53246866D01*
X114214246Y-53289246D01*
X114141973Y-53397411D01*
X114116594Y-53525000D01*
X114116594Y-53589590D01*
X114027027Y-53607406D01*
X113880388Y-53705388D01*
X113640138Y-53945638D01*
X113585754Y-53864246D01*
X113477589Y-53791973D01*
X113350000Y-53766594D01*
X112850000Y-53766594D01*
X112725250Y-53791408D01*
X114786704Y-52413989D01*
X119673315Y-51441982D01*
X120253410Y-51427407D01*
X120583059Y-51492978D01*
M02*
