M48
;DRILL file {KiCad 4.0.1-stable} date Wed 17 Feb 2016 10:39:03 PM PST
;FORMAT={-:-/ absolute / inch / decimal}
FMAT,2
INCH,TZ
T1C0.016
T2C0.020
T3C0.040
T4C0.146
%
G90
G05
M72
T1
X4.2835Y-2.4248
X4.3061Y-2.2579
X4.378Y-2.2224
X4.3953Y-2.9205
X4.4272Y-2.9626
X4.4902Y-2.872
X4.5108Y-2.2933
X4.5128Y-2.1831
X4.5226Y-2.0709
X4.5453Y-3.062
X4.565Y-2.9567
X4.5699Y-2.2923
X4.5724Y-2.9091
X4.5758Y-2.0453
X4.578Y-2.7976
X4.5965Y-2.6949
X4.6289Y-2.1122
X4.661Y-2.7894
X4.7028Y-2.0325
X4.7047Y-2.9862
X4.7362Y-3.0807
X4.7709Y-2.7882
X4.7726Y-2.1122
X4.815Y-2.871
X4.8165Y-2.7125
X4.8189Y-2.8094
X4.822Y-2.3976
X4.8307Y-2.0866
X4.8346Y-2.9439
X4.8376Y-2.2933
X4.8406Y-2.1752
X4.8661Y-2.4134
X4.8749Y-2.7542
X4.882Y-2.8725
X4.897Y-2.0894
X4.9163Y-2.2362
X4.9163Y-3.0571
X4.9261Y-2.4742
X4.936Y-2.5026
X4.9417Y-2.802
X4.9443Y-2.6448
X4.9449Y-2.3346
X4.9449Y-2.3701
X4.9519Y-2.5285
X4.9674Y-2.6679
X4.9764Y-2.1988
X4.9775Y-2.6116
X4.9803Y-2.3346
X4.9803Y-2.3701
X4.9921Y-2.5236
X4.9941Y-2.2579
X4.9951Y-2.1093
X5.0006Y-2.6348
X5.0098Y-2.563
X5.0213Y-2.2224
X5.0244Y-2.4154
X5.0325Y-2.9429
X5.0333Y-2.7467
X5.0563Y-2.1717
X5.0817Y-2.4705
X5.1051Y-2.4102
X5.1071Y-2.8693
X5.128Y-2.5472
X5.1304Y-2.7248
X5.1398Y-2.3083
X5.1525Y-2.6217
X5.1693Y-2.8465
X5.1819Y-2.5429
X5.187Y-2.689
X5.2136Y-2.3691
X5.2343Y-2.6969
X5.248Y-2.5305
T2
X4.9311Y-2.9331
X4.9659Y-2.8983
X5.0007Y-2.8635
X5.0355Y-2.8287
X5.0703Y-2.7939
X5.1051Y-2.7591
T3
X4.3565Y-2.7738
X4.4272Y-2.8445
T4
X4.7244Y-2.2441
X4.7244Y-2.874
T0
M30
