G04 #@! TF.FileFunction,Soldermask,Bot*
%FSLAX46Y46*%
G04 Gerber Fmt 4.6, Leading zero omitted, Abs format (unit mm)*
G04 Created by KiCad (PCBNEW (2016-03-30 BZR 6657, Git fe53ec8)-product) date Mon 11 Apr 2016 10:18:00 PM PDT*
%MOMM*%
G01*
G04 APERTURE LIST*
%ADD10C,0.100000*%
%ADD11R,0.600000X0.500000*%
%ADD12R,0.800000X0.750000*%
%ADD13C,2.032000*%
%ADD14R,1.060000X0.650000*%
%ADD15O,0.750000X0.300000*%
%ADD16O,0.300000X0.750000*%
%ADD17R,0.900000X0.900000*%
%ADD18C,0.988060*%
%ADD19C,0.985520*%
%ADD20C,0.800000*%
%ADD21C,5.000000*%
%ADD22C,3.700000*%
G04 APERTURE END LIST*
D10*
D11*
X129400000Y-68800000D03*
X130500000Y-68800000D03*
D12*
X131700000Y-62200000D03*
X130200000Y-62200000D03*
X131700000Y-63900000D03*
X130200000Y-63900000D03*
D10*
G36*
X112450000Y-70813159D02*
X113886841Y-72250000D01*
X112450000Y-73686841D01*
X111013159Y-72250000D01*
X112450000Y-70813159D01*
X112450000Y-70813159D01*
G37*
D13*
X110653949Y-70453949D02*
X110653949Y-70453949D01*
D14*
X129450000Y-67400000D03*
X129450000Y-66450000D03*
X129450000Y-65500000D03*
X131650000Y-65500000D03*
X131650000Y-67400000D03*
D15*
X127525000Y-59000000D03*
X127525000Y-59500000D03*
X127525000Y-60000000D03*
X127525000Y-60500000D03*
D16*
X126800000Y-61225000D03*
X126300000Y-61225000D03*
X125800000Y-61225000D03*
X125300000Y-61225000D03*
D15*
X124575000Y-60500000D03*
X124575000Y-60000000D03*
X124575000Y-59500000D03*
X124575000Y-59000000D03*
D16*
X125300000Y-58275000D03*
X125800000Y-58275000D03*
X126300000Y-58275000D03*
X126800000Y-58275000D03*
D17*
X125600000Y-60200000D03*
X125600000Y-59300000D03*
X126500000Y-60200000D03*
X126500000Y-59300000D03*
D10*
G36*
X130297487Y-70778249D02*
X130721751Y-71202513D01*
X130438909Y-71485355D01*
X130014645Y-71061091D01*
X130297487Y-70778249D01*
X130297487Y-70778249D01*
G37*
G36*
X129661091Y-71414645D02*
X130085355Y-71838909D01*
X129802513Y-72121751D01*
X129378249Y-71697487D01*
X129661091Y-71414645D01*
X129661091Y-71414645D01*
G37*
D18*
X121403949Y-51653949D03*
D19*
X125714472Y-54527631D03*
X124277631Y-55964472D03*
D10*
G36*
X125250000Y-75065685D02*
X124684315Y-74500000D01*
X125250000Y-73934315D01*
X125815685Y-74500000D01*
X125250000Y-75065685D01*
X125250000Y-75065685D01*
G37*
D20*
X126133883Y-73616117D02*
X126133883Y-73616117D01*
X127017767Y-72732233D02*
X127017767Y-72732233D01*
X127901650Y-71848350D02*
X127901650Y-71848350D01*
X128785534Y-70964466D02*
X128785534Y-70964466D01*
X129669417Y-70080583D02*
X129669417Y-70080583D01*
D21*
X120000000Y-57000000D03*
D22*
X120000000Y-73000000D03*
D21*
X120000000Y-65000000D03*
M02*
